  0
SECTION
  2
HEADER
  9
$ACADVER
  1
AC1032
  9
$ACADMAINTVER
 90
       55
  9
$DWGCODEPAGE
  3
ISO8859-1
  9
$LASTSAVEDBY
  1
OmenHp
  9
$REQUIREDVERSIONS
160
                 0
  9
$INSBASE
 10
0.0
 20
0.0
 30
0.0
  9
$EXTMIN
 10
1.000000000000000E+20
 20
1.000000000000000E+20
 30
1.000000000000000E+20
  9
$EXTMAX
 10
-1.000000000000000E+20
 20
-1.000000000000000E+20
 30
-1.000000000000000E+20
  9
$LIMMIN
 10
0.0
 20
0.0
  9
$LIMMAX
 10
420.0
 20
297.0
  9
$ORTHOMODE
 70
     0
  9
$REGENMODE
 70
     1
  9
$FILLMODE
 70
     1
  9
$QTEXTMODE
 70
     0
  9
$MIRRTEXT
 70
     1
  9
$LTSCALE
 40
1.0
  9
$ATTMODE
 70
     1
  9
$TEXTSIZE
 40
2.5
  9
$TRACEWID
 40
1.0
  9
$TEXTSTYLE
  7
Standard
  9
$CLAYER
  8
0
  9
$CELTYPE
  6
ByLayer
  9
$CECOLOR
 62
   256
  9
$CELTSCALE
 40
1.0
  9
$DISPSILH
 70
     0
  9
$DIMSCALE
 40
1.0
  9
$DIMASZ
 40
2.5
  9
$DIMEXO
 40
0.625
  9
$DIMDLI
 40
3.75
  9
$DIMRND
 40
0.0
  9
$DIMDLE
 40
0.0
  9
$DIMEXE
 40
1.25
  9
$DIMTP
 40
0.0
  9
$DIMTM
 40
0.0
  9
$DIMTXT
 40
2.5
  9
$DIMCEN
 40
2.5
  9
$DIMTSZ
 40
0.0
  9
$DIMTOL
 70
     0
  9
$DIMLIM
 70
     0
  9
$DIMTIH
 70
     0
  9
$DIMTOH
 70
     0
  9
$DIMSE1
 70
     0
  9
$DIMSE2
 70
     0
  9
$DIMTAD
 70
     1
  9
$DIMZIN
 70
     8
  9
$DIMBLK
  1

  9
$DIMASO
 70
     1
  9
$DIMSHO
 70
     1
  9
$DIMPOST
  1

  9
$DIMAPOST
  1

  9
$DIMALT
 70
     0
  9
$DIMALTD
 70
     3
  9
$DIMALTF
 40
0.03937007874016
  9
$DIMLFAC
 40
1.0
  9
$DIMTOFL
 70
     1
  9
$DIMTVP
 40
0.0
  9
$DIMTIX
 70
     0
  9
$DIMSOXD
 70
     0
  9
$DIMSAH
 70
     0
  9
$DIMBLK1
  1

  9
$DIMBLK2
  1

  9
$DIMSTYLE
  2
ISO-25
  9
$DIMCLRD
 70
     0
  9
$DIMCLRE
 70
     0
  9
$DIMCLRT
 70
     0
  9
$DIMTFAC
 40
1.0
  9
$DIMGAP
 40
0.625
  9
$DIMJUST
 70
     0
  9
$DIMSD1
 70
     0
  9
$DIMSD2
 70
     0
  9
$DIMTOLJ
 70
     0
  9
$DIMTZIN
 70
     8
  9
$DIMALTZ
 70
     0
  9
$DIMALTTZ
 70
     0
  9
$DIMUPT
 70
     0
  9
$DIMDEC
 70
     2
  9
$DIMTDEC
 70
     2
  9
$DIMALTU
 70
     2
  9
$DIMALTTD
 70
     3
  9
$DIMTXSTY
  7
Standard
  9
$DIMAUNIT
 70
     0
  9
$DIMADEC
 70
     0
  9
$DIMALTRND
 40
0.0
  9
$DIMAZIN
 70
     0
  9
$DIMDSEP
 70
    44
  9
$DIMATFIT
 70
     3
  9
$DIMFRAC
 70
     0
  9
$DIMLDRBLK
  1

  9
$DIMLUNIT
 70
     2
  9
$DIMLWD
 70
    -2
  9
$DIMLWE
 70
    -2
  9
$DIMTMOVE
 70
     0
  9
$DIMFXL
 40
1.0
  9
$DIMFXLON
 70
     0
  9
$DIMJOGANG
 40
0.7853981633974483
  9
$DIMTFILL
 70
     0
  9
$DIMTFILLCLR
 70
     0
  9
$DIMARCSYM
 70
     0
  9
$DIMLTYPE
  6

  9
$DIMLTEX1
  6

  9
$DIMLTEX2
  6

  9
$DIMTXTDIRECTION
 70
     0
  9
$LUNITS
 70
     2
  9
$LUPREC
 70
     4
  9
$SKETCHINC
 40
1.0
  9
$FILLETRAD
 40
0.0
  9
$AUNITS
 70
     0
  9
$AUPREC
 70
     0
  9
$MENU
  1
.
  9
$ELEVATION
 40
0.0
  9
$PELEVATION
 40
0.0
  9
$THICKNESS
 40
0.0
  9
$LIMCHECK
 70
     0
  9
$CHAMFERA
 40
0.0
  9
$CHAMFERB
 40
0.0
  9
$CHAMFERC
 40
0.0
  9
$CHAMFERD
 40
0.0
  9
$SKPOLY
 70
     0
  9
$TDCREATE
 40
2461200.560801991
  9
$TDUCREATE
 40
2461200.477468657
  9
$TDUPDATE
 40
2461200.560802014
  9
$TDUUPDATE
 40
2461200.477468681
  9
$TDINDWG
 40
0.0000000116
  9
$TDUSRTIMER
 40
0.0000000116
  9
$USRTIMER
 70
     1
  9
$ANGBASE
 50
0.0
  9
$ANGDIR
 70
     0
  9
$PDMODE
 70
     0
  9
$PDSIZE
 40
0.0
  9
$PLINEWID
 40
0.0
  9
$SPLFRAME
 70
     0
  9
$SPLINETYPE
 70
     6
  9
$SPLINESEGS
 70
     8
  9
$HANDSEED
  5
7F
  9
$SURFTAB1
 70
     6
  9
$SURFTAB2
 70
     6
  9
$SURFTYPE
 70
     6
  9
$SURFU
 70
     6
  9
$SURFV
 70
     6
  9
$UCSBASE
  2

  9
$UCSNAME
  2

  9
$UCSORG
 10
0.0
 20
0.0
 30
0.0
  9
$UCSXDIR
 10
1.0
 20
0.0
 30
0.0
  9
$UCSYDIR
 10
0.0
 20
1.0
 30
0.0
  9
$UCSORTHOREF
  2

  9
$UCSORTHOVIEW
 70
     0
  9
$UCSORGTOP
 10
0.0
 20
0.0
 30
0.0
  9
$UCSORGBOTTOM
 10
0.0
 20
0.0
 30
0.0
  9
$UCSORGLEFT
 10
0.0
 20
0.0
 30
0.0
  9
$UCSORGRIGHT
 10
0.0
 20
0.0
 30
0.0
  9
$UCSORGFRONT
 10
0.0
 20
0.0
 30
0.0
  9
$UCSORGBACK
 10
0.0
 20
0.0
 30
0.0
  9
$PUCSBASE
  2

  9
$PUCSNAME
  2

  9
$PUCSORG
 10
0.0
 20
0.0
 30
0.0
  9
$PUCSXDIR
 10
1.0
 20
0.0
 30
0.0
  9
$PUCSYDIR
 10
0.0
 20
1.0
 30
0.0
  9
$PUCSORTHOREF
  2

  9
$PUCSORTHOVIEW
 70
     0
  9
$PUCSORGTOP
 10
0.0
 20
0.0
 30
0.0
  9
$PUCSORGBOTTOM
 10
0.0
 20
0.0
 30
0.0
  9
$PUCSORGLEFT
 10
0.0
 20
0.0
 30
0.0
  9
$PUCSORGRIGHT
 10
0.0
 20
0.0
 30
0.0
  9
$PUCSORGFRONT
 10
0.0
 20
0.0
 30
0.0
  9
$PUCSORGBACK
 10
0.0
 20
0.0
 30
0.0
  9
$USERI1
 70
     0
  9
$USERI2
 70
     0
  9
$USERI3
 70
     0
  9
$USERI4
 70
     0
  9
$USERI5
 70
     0
  9
$USERR1
 40
0.0
  9
$USERR2
 40
0.0
  9
$USERR3
 40
0.0
  9
$USERR4
 40
0.0
  9
$USERR5
 40
0.0
  9
$WORLDVIEW
 70
     1
  9
$SHADEDGE
 70
     3
  9
$SHADEDIF
 70
    70
  9
$TILEMODE
 70
     1
  9
$MAXACTVP
 70
    64
  9
$PINSBASE
 10
0.0
 20
0.0
 30
0.0
  9
$PLIMCHECK
 70
     0
  9
$PEXTMIN
 10
550.275
 20
550.275
 30
0.0
  9
$PEXTMAX
 10
0.0
 20
0.0
 30
0.0
  9
$PLIMMIN
 10
-20.0
 20
-7.5
  9
$PLIMMAX
 10
277.0
 20
202.5
  9
$UNITMODE
 70
     0
  9
$VISRETAIN
 70
     1
  9
$PLINEGEN
 70
     0
  9
$PSLTSCALE
 70
     1
  9
$TREEDEPTH
 70
  3020
  9
$CMLSTYLE
  2
Standard
  9
$CMLJUST
 70
     0
  9
$CMLSCALE
 40
20.0
  9
$PROXYGRAPHICS
 70
     1
  9
$MEASUREMENT
 70
     1
  9
$CELWEIGHT
370
    -1
  9
$ENDCAPS
280
     0
  9
$JOINSTYLE
280
     0
  9
$LWDISPLAY
290
     0
  9
$INSUNITS
 70
     4
  9
$HYPERLINKBASE
  1

  9
$STYLESHEET
  1

  9
$XEDIT
290
     1
  9
$CEPSNTYPE
380
     0
  9
$PSTYLEMODE
290
     1
  9
$FINGERPRINTGUID
  2
{31a40106-000e-4815-8df1-8b3aa2af06f4}
  9
$VERSIONGUID
  2
{FAEB1C32-E019-11D5-929B-00C0DF256EC4}
  9
$EXTNAMES
290
     1
  9
$PSVPSCALE
 40
0.0
  9
$OLESTARTUP
290
     0
  9
$SORTENTS
280
   127
  9
$INDEXCTL
280
     0
  9
$HIDETEXT
280
     1
  9
$XCLIPFRAME
280
     2
  9
$HALOGAP
280
     0
  9
$OBSCOLOR
 70
   257
  9
$OBSLTYPE
280
     0
  9
$INTERSECTIONDISPLAY
280
     0
  9
$INTERSECTIONCOLOR
 70
   257
  9
$DIMASSOC
280
     2
  9
$PROJECTNAME
  1

  9
$CAMERADISPLAY
290
     0
  9
$LENSLENGTH
 40
50.0
  9
$CAMERAHEIGHT
 40
0.0
  9
$STEPSPERSEC
 40
2.0
  9
$STEPSIZE
 40
6.0
  9
$3DDWFPREC
 40
2.0
  9
$PSOLWIDTH
 40
5.0
  9
$PSOLHEIGHT
 40
80.0
  9
$LOFTANG1
 40
1.570796326794897
  9
$LOFTANG2
 40
1.570796326794897
  9
$LOFTMAG1
 40
0.0
  9
$LOFTMAG2
 40
0.0
  9
$LOFTPARAM
 70
     7
  9
$LOFTNORMALS
280
     1
  9
$LATITUDE
 40
37.795
  9
$LONGITUDE
 40
-122.394
  9
$NORTHDIRECTION
 40
0.0
  9
$TIMEZONE
 70
 -8000
  9
$LIGHTGLYPHDISPLAY
280
     1
  9
$TILEMODELIGHTSYNCH
280
     1
  9
$CMATERIAL
347
44
  9
$SOLIDHIST
280
     0
  9
$SHOWHIST
280
     1
  9
$DWFFRAME
280
     2
  9
$DGNFRAME
280
     2
  9
$REALWORLDSCALE
290
     1
  9
$INTERFERECOLOR
 62
   256
  9
$CSHADOW
280
     0
  9
$SHADOWPLANELOCATION
 40
0.0
  0
ENDSEC
  0
SECTION
  2
CLASSES
  0
CLASS
  1
ACDBDICTIONARYWDFLT
  2
AcDbDictionaryWithDefault
  3
ObjectDBX Classes
 90
        0
 91
        3
280
     0
281
     0
  0
CLASS
  1
VISUALSTYLE
  2
AcDbVisualStyle
  3
ObjectDBX Classes
 90
     4095
 91
        3
280
     0
281
     0
  0
CLASS
  1
MATERIAL
  2
AcDbMaterial
  3
ObjectDBX Classes
 90
     1153
 91
        3
280
     0
281
     0
  0
CLASS
  1
SCALE
  2
AcDbScale
  3
ObjectDBX Classes
 90
     1153
 91
        3
280
     0
281
     0
  0
CLASS
  1
TABLESTYLE
  2
AcDbTableStyle
  3
ObjectDBX Classes
 90
     4095
 91
        3
280
     0
281
     0
  0
CLASS
  1
MLEADERSTYLE
  2
AcDbMLeaderStyle
  3
ACDB_MLEADERSTYLE_CLASS
 90
     4095
 91
        3
280
     0
281
     0
  0
CLASS
  1
SUN
  2
AcDbSun
  3
SCENEOE
 90
     1153
 91
        3
280
     0
281
     0
  0
CLASS
  1
DICTIONARYVAR
  2
AcDbDictionaryVar
  3
ObjectDBX Classes
 90
        0
 91
        3
280
     0
281
     0
  0
CLASS
  1
CELLSTYLEMAP
  2
AcDbCellStyleMap
  3
ObjectDBX Classes
 90
     1152
 91
        3
280
     0
281
     0
  0
ENDSEC
  0
SECTION
  2
TABLES
  0
TABLE
  2
VPORT
  5
8
330
0
100
AcDbSymbolTable
 70
     1
  0
VPORT
  5
29
330
8
100
AcDbSymbolTableRecord
100
AcDbViewportTableRecord
  2
*Active
 70
     0
 10
0.0
 20
0.0
 11
1.0
 21
1.0
 12
275.1375
 22
275.1375
 13
0.0
 23
0.0
 14
10.0
 24
10.0
 15
10.0
 25
10.0
 16
0.0
 26
0.0
 36
1.0
 17
0.0
 27
0.0
 37
0.0
 40
550.275
 41
1.972972972850329
 42
50.0
 43
0.0
 44
0.0
 50
0.0
 51
0.0
 71
     0
 72
   100
 73
     1
 74
     3
 75
     0
 76
     0
 77
     0
 78
     0
281
     0
 65
     1
110
0.0
120
0.0
130
0.0
111
1.0
121
0.0
131
0.0
112
0.0
122
1.0
132
0.0
 79
     0
146
0.0
348
2F
 60
     3
 61
     5
292
     1
282
     1
141
0.0
142
0.0
 63
   250
361
5D
  0
ENDTAB
  0
TABLE
  2
LTYPE
  5
5
330
0
100
AcDbSymbolTable
 70
     1
  0
LTYPE
  5
14
330
5
100
AcDbSymbolTableRecord
100
AcDbLinetypeTableRecord
  2
ByBlock
 70
     0
  3

 72
    65
 73
     0
 40
0.0
  0
LTYPE
  5
15
330
5
100
AcDbSymbolTableRecord
100
AcDbLinetypeTableRecord
  2
ByLayer
 70
     0
  3

 72
    65
 73
     0
 40
0.0
  0
LTYPE
  5
16
330
5
100
AcDbSymbolTableRecord
100
AcDbLinetypeTableRecord
  2
Continuous
 70
     0
  3
Solid line
 72
    65
 73
     0
 40
0.0
  0
ENDTAB
  0
TABLE
  2
LAYER
  5
2
330
0
100
AcDbSymbolTable
 70
     2
  0
LAYER
  5
10
330
2
100
AcDbSymbolTableRecord
100
AcDbLayerTableRecord
  2
0
 70
     0
 62
     7
  6
Continuous
370
    -3
390
F
347
46
348
0
  0
LAYER
  5
5F
330
2
100
AcDbSymbolTableRecord
100
AcDbLayerTableRecord
  2
Depth_2mm
 70
     0
 62
     7
  6
Continuous
370
    -3
390
F
347
46
348
0
  0
ENDTAB
  0
TABLE
  2
STYLE
  5
3
330
0
100
AcDbSymbolTable
 70
     1
  0
STYLE
  5
11
330
3
100
AcDbSymbolTableRecord
100
AcDbTextStyleTableRecord
  2
Standard
 70
     0
 40
0.0
 41
1.0
 50
0.0
 71
     0
 42
2.5
  3
txt
  4

  0
ENDTAB
  0
TABLE
  2
VIEW
  5
6
330
0
100
AcDbSymbolTable
 70
     0
  0
ENDTAB
  0
TABLE
  2
UCS
  5
7
330
0
100
AcDbSymbolTable
 70
     0
  0
ENDTAB
  0
TABLE
  2
APPID
  5
9
330
0
100
AcDbSymbolTable
 70
     1
  0
APPID
  5
12
330
9
100
AcDbSymbolTableRecord
100
AcDbRegAppTableRecord
  2
ACAD
 70
     0
  0
ENDTAB
  0
TABLE
  2
DIMSTYLE
  5
A
330
0
100
AcDbSymbolTable
 70
     1
100
AcDbDimStyleTable
  0
DIMSTYLE
105
27
330
A
100
AcDbSymbolTableRecord
100
AcDbDimStyleTableRecord
  2
ISO-25
 70
     0
 41
2.5
 42
0.625
 43
3.75
 44
1.25
 73
     0
 74
     0
 77
     1
 78
     8
140
2.5
141
2.5
143
0.03937007874016
147
0.625
171
     3
172
     1
178
     0
271
     2
272
     2
274
     3
278
    44
283
     0
284
     8
340
11
  0
ENDTAB
  0
TABLE
  2
BLOCK_RECORD
  5
1
330
0
100
AcDbSymbolTable
 70
     0
  0
BLOCK_RECORD
  5
1F
330
1
100
AcDbSymbolTableRecord
100
AcDbBlockTableRecord
  2
*Model_Space
340
22
 70
     0
280
     1
281
     0
  0
BLOCK_RECORD
  5
6C
330
1
100
AcDbSymbolTableRecord
100
AcDbBlockTableRecord
  2
*Paper_Space
340
6D
 70
     0
280
     1
281
     0
  0
ENDTAB
  0
ENDSEC
  0
SECTION
  2
BLOCKS
  0
BLOCK
  5
20
330
1F
100
AcDbEntity
  8
0
100
AcDbBlockBegin
  2
*Model_Space
 70
     0
 10
0.0
 20
0.0
 30
0.0
  3
*Model_Space
  1

  0
ENDBLK
  5
21
330
1F
100
AcDbEntity
  8
0
100
AcDbBlockEnd
  0
BLOCK
  5
6E
330
6C
100
AcDbEntity
 67
     1
  8
0
100
AcDbBlockBegin
  2
*Paper_Space
 70
     0
 10
0.0
 20
0.0
 30
0.0
  3
*Paper_Space
  1

  0
ENDBLK
  5
6F
330
6C
100
AcDbEntity
 67
     1
  8
0
100
AcDbBlockEnd
  0
ENDSEC
  0
SECTION
  2
ENTITIES
  0
HATCH
  5
5E
330
1F
100
AcDbEntity
  8
0
 62
     7
420
 15461355
440
 33554687
100
AcDbHatch
 10
0.0
 20
0.0
 30
0.0
210
0.0
220
0.0
230
1.0
  2
SOLID
 70
     1
 71
     1
 91
        1
 92
        0
 93
        4
 72
     1
 10
373.3804950000001
 20
487.9916210000001
 11
373.3804950000001
 21
378.303621
 72
     1
 10
373.3804950000001
 20
378.303621
 11
176.894505
 21
378.303621
 72
     1
 10
176.894505
 20
378.303621
 11
176.894505
 21
487.9916210000001
 72
     1
 10
176.894505
 20
487.9916210000001
 11
373.3804950000001
 21
487.9916210000001
 97
        0
 75
     0
 76
     1
 98
        0
  0
LWPOLYLINE
  5
60
330
1F
100
AcDbEntity
  8
Depth_2mm
  6
Continuous
 62
     3
420
    65280
370
    25
100
AcDbPolyline
 90
       77
 70
     1
 43
0.0
 10
378.727018
 20
388.0518670000001
 10
377.891624
 20
388.0518670000001
 10
376.053756
 20
388.0518670000001
 10
374.215889
 20
388.0518670000001
 10
373.3804950000001
 20
388.0518670000001
 10
373.3804950000001
 20
389.9515940000001
 10
373.3804950000001
 20
394.130993
 10
373.3804950000001
 20
398.3103920000001
 10
373.3804950000001
 20
400.2101190000001
 10
374.215889
 20
400.2101190000001
 10
376.053756
 20
400.2101190000001
 10
377.891624
 20
400.2101190000001
 10
378.727018
 20
400.2101190000001
 10
379.039651
 20
400.2022030000001
 10
379.3482030000001
 20
400.178709
 10
379.6522900000001
 20
400.14002
 10
379.951529
 20
400.0865209999999
 10
380.245536
 20
400.018593
 10
380.53393
 20
399.9366210000001
 10
380.8163250000001
 20
399.840987
 10
381.09234
 20
399.7320750000001
 10
381.361591
 20
399.6102680000001
 10
381.6236940000001
 20
399.4759490000001
 10
381.8782680000001
 20
399.3295009999999
 10
382.1249270000001
 20
399.1713070000001
 10
382.36329
 20
399.001751
 10
382.592973
 20
398.821216
 10
382.8135930000001
 20
398.630085
 10
383.0247660000001
 20
398.428742
 10
383.2261100000001
 20
398.217568
 10
383.417241
 20
397.996948
 10
383.597776
 20
397.7672660000001
 10
383.767332
 20
397.5289030000001
 10
383.925526
 20
397.2822430000001
 10
384.071973
 20
397.0276699999999
 10
384.206293
 20
396.765566
 10
384.3281
 20
396.4963150000001
 10
384.437012
 20
396.2203
 10
384.532646
 20
395.937905
 10
384.614618
 20
395.6495110000001
 10
384.6825450000001
 20
395.3555040000001
 10
384.736045
 20
395.0562649999999
 10
384.774733
 20
394.752178
 10
384.798227
 20
394.4436259999999
 10
384.806144
 20
394.130993
 10
384.798227
 20
393.81836
 10
384.774733
 20
393.509808
 10
384.736045
 20
393.205721
 10
384.6825450000001
 20
392.9064829999999
 10
384.614618
 20
392.6124750000001
 10
384.532646
 20
392.3240820000001
 10
384.437012
 20
392.041686
 10
384.3281
 20
391.7656710000001
 10
384.206293
 20
391.4964199999999
 10
384.071973
 20
391.2343170000001
 10
383.925526
 20
390.9797430000001
 10
383.767332
 20
390.733084
 10
383.597776
 20
390.494721
 10
383.417241
 20
390.265038
 10
383.2261100000001
 20
390.044418
 10
383.0247660000001
 20
389.833245
 10
382.8135930000001
 20
389.6319009999999
 10
382.592973
 20
389.4407700000002
 10
382.36329
 20
389.260235
 10
382.1249270000001
 20
389.0906790000001
 10
381.8782680000001
 20
388.932485
 10
381.6236940000001
 20
388.786038
 10
381.361591
 20
388.6517180000001
 10
381.09234
 20
388.5299110000001
 10
380.8163250000001
 20
388.4209989999999
 10
380.53393
 20
388.3253650000001
 10
380.245536
 20
388.243393
 10
379.951529
 20
388.1754660000001
 10
379.6522900000001
 20
388.1219660000002
 10
379.3482030000001
 20
388.0832780000001
 10
379.039651
 20
388.059784
 10
378.727018
 20
388.0518670000001
  0
LWPOLYLINE
  5
61
330
1F
100
AcDbEntity
  8
Depth_2mm
  6
Continuous
 62
     3
420
    65280
370
    25
100
AcDbPolyline
 90
       77
 70
     1
 43
0.0
 10
378.727018
 20
466.1074120000001
 10
377.891624
 20
466.1074120000001
 10
376.053756
 20
466.1074120000001
 10
374.215889
 20
466.1074120000001
 10
373.3804950000001
 20
466.1074120000001
 10
373.3804950000001
 20
468.0071390000001
 10
373.3804950000001
 20
472.1865380000002
 10
373.3804950000001
 20
476.365937
 10
373.3804950000001
 20
478.265664
 10
374.215889
 20
478.265664
 10
376.053756
 20
478.265664
 10
377.891624
 20
478.265664
 10
378.727018
 20
478.265664
 10
379.039651
 20
478.257748
 10
379.3482030000001
 20
478.234254
 10
379.6522900000001
 20
478.195565
 10
379.951529
 20
478.1420660000001
 10
380.245536
 20
478.0741379999999
 10
380.53393
 20
477.992166
 10
380.8163250000001
 20
477.8965319999999
 10
381.09234
 20
477.78762
 10
381.361591
 20
477.6658130000001
 10
381.6236940000001
 20
477.5314940000001
 10
381.8782680000001
 20
477.3850460000001
 10
382.1249270000001
 20
477.226852
 10
382.36329
 20
477.057296
 10
382.592973
 20
476.8767609999999
 10
382.8135930000001
 20
476.6856299999999
 10
383.0247660000001
 20
476.484287
 10
383.2261100000001
 20
476.273113
 10
383.417241
 20
476.0524930000001
 10
383.597776
 20
475.8228100000001
 10
383.767332
 20
475.5844480000001
 10
383.925526
 20
475.337788
 10
384.071973
 20
475.0832150000001
 10
384.206293
 20
474.821111
 10
384.3281
 20
474.55186
 10
384.437012
 20
474.2758450000001
 10
384.532646
 20
473.9934499999999
 10
384.614618
 20
473.705056
 10
384.6825450000001
 20
473.411049
 10
384.736045
 20
473.1118100000001
 10
384.774733
 20
472.8077230000001
 10
384.798227
 20
472.4991709999999
 10
384.806144
 20
472.1865380000002
 10
384.798227
 20
471.8739050000001
 10
384.774733
 20
471.565353
 10
384.736045
 20
471.261266
 10
384.6825450000001
 20
470.962027
 10
384.614618
 20
470.6680200000001
 10
384.532646
 20
470.379627
 10
384.437012
 20
470.097231
 10
384.3281
 20
469.821216
 10
384.206293
 20
469.5519650000001
 10
384.071973
 20
469.2898620000001
 10
383.925526
 20
469.035288
 10
383.767332
 20
468.7886290000001
 10
383.597776
 20
468.550266
 10
383.417241
 20
468.3205829999999
 10
383.2261100000001
 20
468.0999630000001
 10
383.0247660000001
 20
467.88879
 10
382.8135930000001
 20
467.6874460000001
 10
382.592973
 20
467.4963150000001
 10
382.36329
 20
467.3157800000001
 10
382.1249270000001
 20
467.1462240000001
 10
381.8782680000001
 20
466.98803
 10
381.6236940000001
 20
466.841582
 10
381.361591
 20
466.707263
 10
381.09234
 20
466.585456
 10
380.8163250000001
 20
466.4765440000001
 10
380.53393
 20
466.3809100000001
 10
380.245536
 20
466.2989380000001
 10
379.951529
 20
466.2310110000001
 10
379.6522900000001
 20
466.177511
 10
379.3482030000001
 20
466.1388229999999
 10
379.039651
 20
466.115329
 10
378.727018
 20
466.1074120000001
  0
LWPOLYLINE
  5
62
330
1F
100
AcDbEntity
  8
Depth_2mm
  6
Continuous
 62
     3
420
    65280
370
    25
100
AcDbPolyline
 90
       77
 70
     1
 43
0.0
 10
356.950506
 20
493.3604330000001
 10
356.950506
 20
492.5215560000001
 10
356.950506
 20
490.6760269999999
 10
356.950506
 20
488.830498
 10
356.950506
 20
487.9916210000001
 10
355.05078
 20
487.9916210000001
 10
350.87138
 20
487.9916210000001
 10
346.6919810000001
 20
487.9916210000001
 10
344.7922540000001
 20
487.9916210000001
 10
344.7922540000001
 20
488.830498
 10
344.7922540000001
 20
490.6760269999999
 10
344.7922540000001
 20
492.5215560000001
 10
344.7922540000001
 20
493.3604330000001
 10
344.800171
 20
493.6730660000001
 10
344.823665
 20
493.981618
 10
344.862353
 20
494.285705
 10
344.915853
 20
494.584944
 10
344.98378
 20
494.8789510000001
 10
345.065752
 20
495.1673450000001
 10
345.161386
 20
495.44974
 10
345.270298
 20
495.7257549999999
 10
345.3921060000001
 20
495.995006
 10
345.526425
 20
496.25711
 10
345.672873
 20
496.5116829999999
 10
345.831066
 20
496.7583429999999
 10
346.000622
 20
496.996705
 10
346.181157
 20
497.226388
 10
346.372288
 20
497.447008
 10
346.573632
 20
497.658181
 10
346.784805
 20
497.8595250000001
 10
347.0054250000001
 20
498.0506560000001
 10
347.235108
 20
498.2311910000001
 10
347.473471
 20
498.4007470000001
 10
347.720131
 20
498.558941
 10
347.974704
 20
498.705389
 10
348.236808
 20
498.839708
 10
348.506058
 20
498.961515
 10
348.782073
 20
499.0704270000001
 10
349.064469
 20
499.1660610000001
 10
349.3528620000001
 20
499.2480330000001
 10
349.64687
 20
499.315961
 10
349.946109
 20
499.3694600000001
 10
350.250195
 20
499.4081479999999
 10
350.558747
 20
499.431642
 10
350.87138
 20
499.4395590000001
 10
351.184014
 20
499.431642
 10
351.4925650000001
 20
499.4081479999999
 10
351.796652
 20
499.3694600000001
 10
352.095891
 20
499.315961
 10
352.3898990000001
 20
499.2480330000001
 10
352.6782920000001
 20
499.1660610000001
 10
352.960688
 20
499.0704270000001
 10
353.236702
 20
498.961515
 10
353.505953
 20
498.839708
 10
353.768057
 20
498.705389
 10
354.02263
 20
498.558941
 10
354.2692900000001
 20
498.4007470000001
 10
354.5076530000001
 20
498.2311910000001
 10
354.737336
 20
498.0506560000001
 10
354.957955
 20
497.8595250000001
 10
355.1691290000001
 20
497.658181
 10
355.370473
 20
497.447008
 10
355.561604
 20
497.226388
 10
355.7421390000001
 20
496.996705
 10
355.9116950000001
 20
496.7583429999999
 10
356.069888
 20
496.5116829999999
 10
356.2163360000001
 20
496.25711
 10
356.350655
 20
495.995006
 10
356.4724630000001
 20
495.7257549999999
 10
356.581375
 20
495.44974
 10
356.6770080000001
 20
495.1673450000001
 10
356.758981
 20
494.8789510000001
 10
356.8269080000001
 20
494.584944
 10
356.880408
 20
494.285705
 10
356.919096
 20
493.981618
 10
356.9425900000001
 20
493.6730660000001
 10
356.950506
 20
493.3604330000001
  0
LWPOLYLINE
  5
63
330
1F
100
AcDbEntity
  8
Depth_2mm
  6
Continuous
 62
     3
420
    65280
370
    25
100
AcDbPolyline
 90
       77
 70
     1
 43
0.0
 10
205.482746
 20
493.3604330000001
 10
205.482746
 20
492.5215560000001
 10
205.482746
 20
490.6760269999999
 10
205.482746
 20
488.830498
 10
205.482746
 20
487.9916210000001
 10
203.583019
 20
487.9916210000001
 10
199.40362
 20
487.9916210000001
 10
195.22422
 20
487.9916210000001
 10
193.324494
 20
487.9916210000001
 10
193.324494
 20
488.830498
 10
193.324494
 20
490.6760269999999
 10
193.324494
 20
492.5215560000001
 10
193.324494
 20
493.3604330000001
 10
193.33241
 20
493.6730660000001
 10
193.355904
 20
493.981618
 10
193.394592
 20
494.285705
 10
193.448092
 20
494.584944
 10
193.516019
 20
494.8789510000001
 10
193.597992
 20
495.1673450000001
 10
193.693625
 20
495.44974
 10
193.802537
 20
495.7257549999999
 10
193.924345
 20
495.995006
 10
194.058664
 20
496.25711
 10
194.205112
 20
496.5116829999999
 10
194.363305
 20
496.7583429999999
 10
194.532861
 20
496.996705
 10
194.713396
 20
497.226388
 10
194.9045270000001
 20
497.447008
 10
195.105871
 20
497.658181
 10
195.317045
 20
497.8595250000001
 10
195.537664
 20
498.0506560000001
 10
195.767347
 20
498.2311910000001
 10
196.00571
 20
498.4007470000001
 10
196.25237
 20
498.558941
 10
196.506943
 20
498.705389
 10
196.769047
 20
498.839708
 10
197.038298
 20
498.961515
 10
197.314312
 20
499.0704270000001
 10
197.596708
 20
499.1660610000001
 10
197.885101
 20
499.2480330000001
 10
198.179109
 20
499.315961
 10
198.478348
 20
499.3694600000001
 10
198.782435
 20
499.4081479999999
 10
199.090986
 20
499.431642
 10
199.40362
 20
499.4395590000001
 10
199.7162530000001
 20
499.431642
 10
200.024805
 20
499.4081479999999
 10
200.328891
 20
499.3694600000001
 10
200.62813
 20
499.315961
 10
200.922138
 20
499.2480330000001
 10
201.210531
 20
499.1660610000001
 10
201.492927
 20
499.0704270000001
 10
201.768942
 20
498.961515
 10
202.038192
 20
498.839708
 10
202.300296
 20
498.705389
 10
202.554869
 20
498.558941
 10
202.801529
 20
498.4007470000001
 10
203.039892
 20
498.2311910000001
 10
203.269575
 20
498.0506560000001
 10
203.4901950000001
 20
497.8595250000001
 10
203.7013680000001
 20
497.658181
 10
203.902712
 20
497.447008
 10
204.093843
 20
497.226388
 10
204.274378
 20
496.996705
 10
204.443934
 20
496.7583429999999
 10
204.602127
 20
496.5116829999999
 10
204.748575
 20
496.25711
 10
204.882894
 20
495.995006
 10
205.004702
 20
495.7257549999999
 10
205.113614
 20
495.44974
 10
205.2092480000001
 20
495.1673450000001
 10
205.29122
 20
494.8789510000001
 10
205.359147
 20
494.584944
 10
205.412647
 20
494.285705
 10
205.451335
 20
493.981618
 10
205.474829
 20
493.6730660000001
 10
205.482746
 20
493.3604330000001
  0
LWPOLYLINE
  5
64
330
1F
100
AcDbEntity
  8
Depth_2mm
  6
Continuous
 62
     3
420
    65280
370
    25
100
AcDbPolyline
 90
       77
 70
     1
 43
0.0
 10
356.950506
 20
378.303621
 10
356.950506
 20
377.4682270000001
 10
356.950506
 20
375.6303600000001
 10
356.950506
 20
373.792492
 10
356.950506
 20
372.9570980000001
 10
356.9425900000001
 20
372.6444650000001
 10
356.919096
 20
372.3359130000001
 10
356.880408
 20
372.0318260000001
 10
356.8269080000001
 20
371.7325880000001
 10
356.758981
 20
371.43858
 10
356.6770080000001
 20
371.150187
 10
356.581375
 20
370.8677910000001
 10
356.4724630000001
 20
370.591776
 10
356.350655
 20
370.322525
 10
356.2163360000001
 20
370.060422
 10
356.069888
 20
369.805848
 10
355.9116950000001
 20
369.5591890000001
 10
355.7421390000001
 20
369.3208260000001
 10
355.561604
 20
369.0911430000001
 10
355.370473
 20
368.870523
 10
355.1691290000001
 20
368.6593500000001
 10
354.957955
 20
368.4580060000001
 10
354.737336
 20
368.266875
 10
354.5076530000001
 20
368.0863400000001
 10
354.2692900000001
 20
367.916784
 10
354.02263
 20
367.758591
 10
353.768057
 20
367.6121430000001
 10
353.505953
 20
367.4778240000001
 10
353.236702
 20
367.356016
 10
352.960688
 20
367.247104
 10
352.6782920000001
 20
367.15147
 10
352.3898990000001
 20
367.0694980000001
 10
352.095891
 20
367.001571
 10
351.796652
 20
366.948071
 10
351.4925650000001
 20
366.9093829999999
 10
351.184014
 20
366.8858890000001
 10
350.87138
 20
366.877972
 10
350.558747
 20
366.8858890000001
 10
350.250195
 20
366.9093829999999
 10
349.946109
 20
366.948071
 10
349.64687
 20
367.001571
 10
349.3528620000001
 20
367.0694980000001
 10
349.064469
 20
367.15147
 10
348.782073
 20
367.247104
 10
348.506058
 20
367.356016
 10
348.236808
 20
367.4778240000001
 10
347.974704
 20
367.6121430000001
 10
347.720131
 20
367.758591
 10
347.473471
 20
367.916784
 10
347.235108
 20
368.0863400000001
 10
347.0054250000001
 20
368.266875
 10
346.784805
 20
368.4580060000001
 10
346.573632
 20
368.6593500000001
 10
346.372288
 20
368.870523
 10
346.181157
 20
369.0911430000001
 10
346.000622
 20
369.3208260000001
 10
345.831066
 20
369.5591890000001
 10
345.672873
 20
369.805848
 10
345.526425
 20
370.060422
 10
345.3921060000001
 20
370.322525
 10
345.270298
 20
370.591776
 10
345.161386
 20
370.8677910000001
 10
345.065752
 20
371.150187
 10
344.98378
 20
371.43858
 10
344.915853
 20
371.7325880000001
 10
344.862353
 20
372.0318260000001
 10
344.823665
 20
372.3359130000001
 10
344.800171
 20
372.6444650000001
 10
344.7922540000001
 20
372.9570980000001
 10
344.7922540000001
 20
373.792492
 10
344.7922540000001
 20
375.6303600000001
 10
344.7922540000001
 20
377.4682270000001
 10
344.7922540000001
 20
378.303621
 10
346.6919810000001
 20
378.303621
 10
350.87138
 20
378.303621
 10
355.05078
 20
378.303621
 10
356.950506
 20
378.303621
  0
LWPOLYLINE
  5
65
330
1F
100
AcDbEntity
  8
Depth_2mm
  6
Continuous
 62
     3
420
    65280
370
    25
100
AcDbPolyline
 90
       77
 70
     1
 43
0.0
 10
306.4612530000001
 20
378.303621
 10
306.4612530000001
 20
377.4682270000001
 10
306.4612530000001
 20
375.6303600000001
 10
306.4612530000001
 20
373.792492
 10
306.4612530000001
 20
372.9570980000001
 10
306.453336
 20
372.6444650000001
 10
306.4298420000001
 20
372.3359130000001
 10
306.391154
 20
372.0318260000001
 10
306.337654
 20
371.7325880000001
 10
306.269727
 20
371.43858
 10
306.187755
 20
371.150187
 10
306.092121
 20
370.8677910000001
 10
305.983209
 20
370.591776
 10
305.861402
 20
370.322525
 10
305.727082
 20
370.060422
 10
305.580634
 20
369.805848
 10
305.422441
 20
369.5591890000001
 10
305.252885
 20
369.3208260000001
 10
305.07235
 20
369.0911430000001
 10
304.881219
 20
368.870523
 10
304.679875
 20
368.6593500000001
 10
304.4687020000001
 20
368.4580060000001
 10
304.2480820000001
 20
368.266875
 10
304.018399
 20
368.0863400000001
 10
303.7800360000001
 20
367.916784
 10
303.533377
 20
367.758591
 10
303.278803
 20
367.6121430000001
 10
303.0167
 20
367.4778240000001
 10
302.747449
 20
367.356016
 10
302.471434
 20
367.247104
 10
302.189038
 20
367.15147
 10
301.9006450000001
 20
367.0694980000001
 10
301.606637
 20
367.001571
 10
301.307399
 20
366.948071
 10
301.0033120000001
 20
366.9093829999999
 10
300.69476
 20
366.8858890000001
 10
300.382127
 20
366.877972
 10
300.069494
 20
366.8858890000001
 10
299.760942
 20
366.9093829999999
 10
299.456855
 20
366.948071
 10
299.157616
 20
367.001571
 10
298.8636090000001
 20
367.0694980000001
 10
298.5752150000001
 20
367.15147
 10
298.2928200000001
 20
367.247104
 10
298.016805
 20
367.356016
 10
297.747554
 20
367.4778240000001
 10
297.4854500000001
 20
367.6121430000001
 10
297.230877
 20
367.758591
 10
296.984217
 20
367.916784
 10
296.7458540000001
 20
368.0863400000001
 10
296.516172
 20
368.266875
 10
296.295552
 20
368.4580060000001
 10
296.084378
 20
368.6593500000001
 10
295.883035
 20
368.870523
 10
295.691904
 20
369.0911430000001
 10
295.5113690000001
 20
369.3208260000001
 10
295.3418130000001
 20
369.5591890000001
 10
295.183619
 20
369.805848
 10
295.0371710000001
 20
370.060422
 10
294.9028520000001
 20
370.322525
 10
294.7810450000001
 20
370.591776
 10
294.672133
 20
370.8677910000001
 10
294.5764990000001
 20
371.150187
 10
294.4945270000001
 20
371.43858
 10
294.426599
 20
371.7325880000001
 10
294.3731
 20
372.0318260000001
 10
294.334411
 20
372.3359130000001
 10
294.310917
 20
372.6444650000001
 10
294.3030010000001
 20
372.9570980000001
 10
294.3030010000001
 20
373.792492
 10
294.3030010000001
 20
375.6303600000001
 10
294.3030010000001
 20
377.4682270000001
 10
294.3030010000001
 20
378.303621
 10
296.202728
 20
378.303621
 10
300.382127
 20
378.303621
 10
304.561526
 20
378.303621
 10
306.4612530000001
 20
378.303621
  0
LWPOLYLINE
  5
66
330
1F
100
AcDbEntity
  8
Depth_2mm
  6
Continuous
 62
     3
420
    65280
370
    25
100
AcDbPolyline
 90
       77
 70
     1
 43
0.0
 10
243.813747
 20
378.303621
 10
245.713474
 20
378.303621
 10
249.892873
 20
378.303621
 10
254.072272
 20
378.303621
 10
255.971999
 20
378.303621
 10
255.971999
 20
377.4682270000001
 10
255.971999
 20
375.6303600000001
 10
255.971999
 20
373.792492
 10
255.971999
 20
372.9570980000001
 10
255.964083
 20
372.6444650000001
 10
255.940589
 20
372.3359130000001
 10
255.9019
 20
372.0318260000001
 10
255.848401
 20
371.7325880000001
 10
255.780473
 20
371.43858
 10
255.698501
 20
371.150187
 10
255.602867
 20
370.8677910000001
 10
255.4939550000001
 20
370.591776
 10
255.372148
 20
370.322525
 10
255.237829
 20
370.060422
 10
255.091381
 20
369.805848
 10
254.933187
 20
369.5591890000001
 10
254.763631
 20
369.3208260000001
 10
254.583096
 20
369.0911430000001
 10
254.391965
 20
368.870523
 10
254.190622
 20
368.6593500000001
 10
253.979448
 20
368.4580060000001
 10
253.758828
 20
368.266875
 10
253.529146
 20
368.0863400000001
 10
253.290783
 20
367.916784
 10
253.044123
 20
367.758591
 10
252.78955
 20
367.6121430000001
 10
252.5274460000001
 20
367.4778240000001
 10
252.2581950000001
 20
367.356016
 10
251.98218
 20
367.247104
 10
251.699785
 20
367.15147
 10
251.411391
 20
367.0694980000001
 10
251.117384
 20
367.001571
 10
250.818145
 20
366.948071
 10
250.514058
 20
366.9093829999999
 10
250.205506
 20
366.8858890000001
 10
249.892873
 20
366.877972
 10
249.58024
 20
366.8858890000001
 10
249.271688
 20
366.9093829999999
 10
248.967601
 20
366.948071
 10
248.6683630000001
 20
367.001571
 10
248.374355
 20
367.0694980000001
 10
248.085962
 20
367.15147
 10
247.803566
 20
367.247104
 10
247.527551
 20
367.356016
 10
247.2583
 20
367.4778240000001
 10
246.9961970000001
 20
367.6121430000001
 10
246.741623
 20
367.758591
 10
246.494964
 20
367.916784
 10
246.256601
 20
368.0863400000001
 10
246.026918
 20
368.266875
 10
245.806298
 20
368.4580060000001
 10
245.595125
 20
368.6593500000001
 10
245.393781
 20
368.870523
 10
245.20265
 20
369.0911430000001
 10
245.022115
 20
369.3208260000001
 10
244.852559
 20
369.5591890000001
 10
244.694366
 20
369.805848
 10
244.547918
 20
370.060422
 10
244.413598
 20
370.322525
 10
244.291791
 20
370.591776
 10
244.182879
 20
370.8677910000001
 10
244.087245
 20
371.150187
 10
244.005273
 20
371.43858
 10
243.937346
 20
371.7325880000001
 10
243.883846
 20
372.0318260000001
 10
243.845158
 20
372.3359130000001
 10
243.821664
 20
372.6444650000001
 10
243.813747
 20
372.9570980000001
 10
243.813747
 20
373.792492
 10
243.813747
 20
375.6303600000001
 10
243.813747
 20
377.4682270000001
 10
243.813747
 20
378.303621
  0
LWPOLYLINE
  5
67
330
1F
100
AcDbEntity
  8
Depth_2mm
  6
Continuous
 62
     3
420
    65280
370
    25
100
AcDbPolyline
 90
       77
 70
     1
 43
0.0
 10
193.324494
 20
378.303621
 10
195.22422
 20
378.303621
 10
199.40362
 20
378.303621
 10
203.583019
 20
378.303621
 10
205.482746
 20
378.303621
 10
205.482746
 20
377.4682270000001
 10
205.482746
 20
375.6303600000001
 10
205.482746
 20
373.792492
 10
205.482746
 20
372.9570980000001
 10
205.474829
 20
372.6444650000001
 10
205.451335
 20
372.3359130000001
 10
205.412647
 20
372.0318260000001
 10
205.359147
 20
371.7325880000001
 10
205.29122
 20
371.43858
 10
205.2092480000001
 20
371.150187
 10
205.113614
 20
370.8677910000001
 10
205.004702
 20
370.591776
 10
204.882894
 20
370.322525
 10
204.748575
 20
370.060422
 10
204.602127
 20
369.805848
 10
204.443934
 20
369.5591890000001
 10
204.274378
 20
369.3208260000001
 10
204.093843
 20
369.0911430000001
 10
203.902712
 20
368.870523
 10
203.7013680000001
 20
368.6593500000001
 10
203.4901950000001
 20
368.4580060000001
 10
203.269575
 20
368.266875
 10
203.039892
 20
368.0863400000001
 10
202.801529
 20
367.916784
 10
202.554869
 20
367.758591
 10
202.300296
 20
367.6121430000001
 10
202.038192
 20
367.4778240000001
 10
201.768942
 20
367.356016
 10
201.492927
 20
367.247104
 10
201.210531
 20
367.15147
 10
200.922138
 20
367.0694980000001
 10
200.62813
 20
367.001571
 10
200.328891
 20
366.948071
 10
200.024805
 20
366.9093829999999
 10
199.7162530000001
 20
366.8858890000001
 10
199.40362
 20
366.877972
 10
199.090986
 20
366.8858890000001
 10
198.782435
 20
366.9093829999999
 10
198.478348
 20
366.948071
 10
198.179109
 20
367.001571
 10
197.885101
 20
367.0694980000001
 10
197.596708
 20
367.15147
 10
197.314312
 20
367.247104
 10
197.038298
 20
367.356016
 10
196.769047
 20
367.4778240000001
 10
196.506943
 20
367.6121430000001
 10
196.25237
 20
367.758591
 10
196.00571
 20
367.916784
 10
195.767347
 20
368.0863400000001
 10
195.537664
 20
368.266875
 10
195.317045
 20
368.4580060000001
 10
195.105871
 20
368.6593500000001
 10
194.9045270000001
 20
368.870523
 10
194.713396
 20
369.0911430000001
 10
194.532861
 20
369.3208260000001
 10
194.363305
 20
369.5591890000001
 10
194.205112
 20
369.805848
 10
194.058664
 20
370.060422
 10
193.924345
 20
370.322525
 10
193.802537
 20
370.591776
 10
193.693625
 20
370.8677910000001
 10
193.597992
 20
371.150187
 10
193.516019
 20
371.43858
 10
193.448092
 20
371.7325880000001
 10
193.394592
 20
372.0318260000001
 10
193.355904
 20
372.3359130000001
 10
193.33241
 20
372.6444650000001
 10
193.324494
 20
372.9570980000001
 10
193.324494
 20
373.792492
 10
193.324494
 20
375.6303600000001
 10
193.324494
 20
377.4682270000001
 10
193.324494
 20
378.303621
  0
LWPOLYLINE
  5
68
330
1F
100
AcDbEntity
  8
Depth_2mm
  6
Continuous
 62
     3
420
    65280
370
    25
100
AcDbPolyline
 90
       77
 70
     1
 43
0.0
 10
176.894505
 20
400.2101190000001
 10
176.894505
 20
398.3103920000001
 10
176.894505
 20
394.130993
 10
176.894505
 20
389.9515940000001
 10
176.894505
 20
388.0518670000001
 10
176.059111
 20
388.0518670000001
 10
174.221244
 20
388.0518670000001
 10
172.383376
 20
388.0518670000001
 10
171.547982
 20
388.0518670000001
 10
171.235349
 20
388.059784
 10
170.926797
 20
388.0832780000001
 10
170.62271
 20
388.1219660000002
 10
170.323471
 20
388.1754660000001
 10
170.029464
 20
388.243393
 10
169.74107
 20
388.3253650000001
 10
169.458675
 20
388.4209989999999
 10
169.18266
 20
388.5299110000001
 10
168.913409
 20
388.6517180000001
 10
168.651306
 20
388.786038
 10
168.396732
 20
388.932485
 10
168.150073
 20
389.0906790000001
 10
167.91171
 20
389.260235
 10
167.682027
 20
389.4407700000002
 10
167.461407
 20
389.6319009999999
 10
167.250234
 20
389.833245
 10
167.04889
 20
390.044418
 10
166.857759
 20
390.265038
 10
166.677224
 20
390.494721
 10
166.507668
 20
390.733084
 10
166.349474
 20
390.9797430000001
 10
166.203027
 20
391.2343170000001
 10
166.068707
 20
391.4964199999999
 10
165.9469
 20
391.7656710000001
 10
165.837988
 20
392.041686
 10
165.742354
 20
392.3240820000001
 10
165.660382
 20
392.6124750000001
 10
165.592455
 20
392.9064829999999
 10
165.538955
 20
393.205721
 10
165.500267
 20
393.509808
 10
165.476773
 20
393.81836
 10
165.468856
 20
394.130993
 10
165.476773
 20
394.4436259999999
 10
165.500267
 20
394.752178
 10
165.538955
 20
395.0562649999999
 10
165.592455
 20
395.3555040000001
 10
165.660382
 20
395.6495110000001
 10
165.742354
 20
395.937905
 10
165.837988
 20
396.2203
 10
165.9469
 20
396.4963150000001
 10
166.068707
 20
396.765566
 10
166.203027
 20
397.0276699999999
 10
166.349474
 20
397.2822430000001
 10
166.507668
 20
397.5289030000001
 10
166.677224
 20
397.7672660000001
 10
166.857759
 20
397.996948
 10
167.04889
 20
398.217568
 10
167.250234
 20
398.428742
 10
167.461407
 20
398.630085
 10
167.682027
 20
398.821216
 10
167.91171
 20
399.001751
 10
168.150073
 20
399.1713070000001
 10
168.396732
 20
399.3295009999999
 10
168.651306
 20
399.4759490000001
 10
168.913409
 20
399.6102680000001
 10
169.18266
 20
399.7320750000001
 10
169.458675
 20
399.840987
 10
169.74107
 20
399.9366210000001
 10
170.029464
 20
400.018593
 10
170.323471
 20
400.0865209999999
 10
170.62271
 20
400.14002
 10
170.926797
 20
400.178709
 10
171.235349
 20
400.2022030000001
 10
171.547982
 20
400.2101190000001
 10
172.383376
 20
400.2101190000001
 10
174.221244
 20
400.2101190000001
 10
176.059111
 20
400.2101190000001
 10
176.894505
 20
400.2101190000001
  0
LWPOLYLINE
  5
69
330
1F
100
AcDbEntity
  8
Depth_2mm
  6
Continuous
 62
     3
420
    65280
370
    25
100
AcDbPolyline
 90
       77
 70
     1
 43
0.0
 10
176.894505
 20
466.1074120000001
 10
176.059111
 20
466.1074120000001
 10
174.221244
 20
466.1074120000001
 10
172.383376
 20
466.1074120000001
 10
171.547982
 20
466.1074120000001
 10
171.235349
 20
466.115329
 10
170.926797
 20
466.1388229999999
 10
170.62271
 20
466.177511
 10
170.323471
 20
466.2310110000001
 10
170.029464
 20
466.2989380000001
 10
169.74107
 20
466.3809100000001
 10
169.458675
 20
466.4765440000001
 10
169.18266
 20
466.585456
 10
168.913409
 20
466.707263
 10
168.651306
 20
466.841582
 10
168.396732
 20
466.98803
 10
168.150073
 20
467.1462240000001
 10
167.91171
 20
467.3157800000001
 10
167.682027
 20
467.4963150000001
 10
167.461407
 20
467.6874460000001
 10
167.250234
 20
467.88879
 10
167.04889
 20
468.0999630000001
 10
166.857759
 20
468.3205829999999
 10
166.677224
 20
468.550266
 10
166.507668
 20
468.7886290000001
 10
166.349474
 20
469.035288
 10
166.203027
 20
469.2898620000001
 10
166.068707
 20
469.5519650000001
 10
165.9469
 20
469.821216
 10
165.837988
 20
470.097231
 10
165.742354
 20
470.379627
 10
165.660382
 20
470.6680200000001
 10
165.592455
 20
470.962027
 10
165.538955
 20
471.261266
 10
165.500267
 20
471.565353
 10
165.476773
 20
471.8739050000001
 10
165.468856
 20
472.1865380000002
 10
165.476773
 20
472.4991709999999
 10
165.500267
 20
472.8077230000001
 10
165.538955
 20
473.1118100000001
 10
165.592455
 20
473.411049
 10
165.660382
 20
473.705056
 10
165.742354
 20
473.9934499999999
 10
165.837988
 20
474.2758450000001
 10
165.9469
 20
474.55186
 10
166.068707
 20
474.821111
 10
166.203027
 20
475.0832150000001
 10
166.349474
 20
475.337788
 10
166.507668
 20
475.5844480000001
 10
166.677224
 20
475.8228100000001
 10
166.857759
 20
476.0524930000001
 10
167.04889
 20
476.273113
 10
167.250234
 20
476.484287
 10
167.461407
 20
476.6856299999999
 10
167.682027
 20
476.8767609999999
 10
167.91171
 20
477.057296
 10
168.150073
 20
477.226852
 10
168.396732
 20
477.3850460000001
 10
168.651306
 20
477.5314940000001
 10
168.913409
 20
477.6658130000001
 10
169.18266
 20
477.78762
 10
169.458675
 20
477.8965319999999
 10
169.74107
 20
477.992166
 10
170.029464
 20
478.0741379999999
 10
170.323471
 20
478.1420660000001
 10
170.62271
 20
478.195565
 10
170.926797
 20
478.234254
 10
171.235349
 20
478.257748
 10
171.547982
 20
478.265664
 10
172.383376
 20
478.265664
 10
174.221244
 20
478.265664
 10
176.059111
 20
478.265664
 10
176.894505
 20
478.265664
 10
176.894505
 20
476.365937
 10
176.894505
 20
472.1865380000002
 10
176.894505
 20
468.0071390000001
 10
176.894505
 20
466.1074120000001
  0
LWPOLYLINE
  5
6A
330
1F
100
AcDbEntity
  8
Depth_2mm
  6
Continuous
 62
     3
420
    65280
370
    25
100
AcDbPolyline
 90
       77
 70
     1
 43
0.0
 10
378.727018
 20
427.0796400000001
 10
377.891624
 20
427.0796400000001
 10
376.053756
 20
427.0796400000001
 10
374.215889
 20
427.0796400000001
 10
373.3804950000001
 20
427.0796400000001
 10
373.3804950000001
 20
428.9793670000001
 10
373.3804950000001
 20
433.158766
 10
373.3804950000001
 20
437.3381650000001
 10
373.3804950000001
 20
439.2378920000001
 10
374.215889
 20
439.2378920000001
 10
376.053756
 20
439.2378920000001
 10
377.891624
 20
439.2378920000001
 10
378.727018
 20
439.2378920000001
 10
379.039651
 20
439.229975
 10
379.3482030000001
 20
439.2064809999999
 10
379.6522900000001
 20
439.1677930000001
 10
379.951529
 20
439.1142930000001
 10
380.245536
 20
439.046366
 10
380.53393
 20
438.9643940000001
 10
380.8163250000001
 20
438.8687600000001
 10
381.09234
 20
438.7598480000001
 10
381.361591
 20
438.6380410000001
 10
381.6236940000001
 20
438.503721
 10
381.8782680000001
 20
438.357273
 10
382.1249270000001
 20
438.1990800000001
 10
382.36329
 20
438.029524
 10
382.592973
 20
437.8489890000001
 10
382.8135930000001
 20
437.657858
 10
383.0247660000001
 20
437.456514
 10
383.2261100000001
 20
437.2453410000001
 10
383.417241
 20
437.024721
 10
383.597776
 20
436.795038
 10
383.767332
 20
436.556675
 10
383.925526
 20
436.310015
 10
384.071973
 20
436.0554420000001
 10
384.206293
 20
435.7933379999999
 10
384.3281
 20
435.5240880000001
 10
384.437012
 20
435.248073
 10
384.532646
 20
434.9656770000001
 10
384.614618
 20
434.6772840000001
 10
384.6825450000001
 20
434.383276
 10
384.736045
 20
434.084037
 10
384.774733
 20
433.7799509999999
 10
384.798227
 20
433.471399
 10
384.806144
 20
433.158766
 10
384.798227
 20
432.8461320000001
 10
384.774733
 20
432.537581
 10
384.736045
 20
432.2334940000001
 10
384.6825450000001
 20
431.9342550000001
 10
384.614618
 20
431.640247
 10
384.532646
 20
431.351854
 10
384.437012
 20
431.0694590000001
 10
384.3281
 20
430.7934440000001
 10
384.206293
 20
430.524193
 10
384.071973
 20
430.2620890000001
 10
383.925526
 20
430.0075160000001
 10
383.767332
 20
429.7608560000001
 10
383.597776
 20
429.5224929999999
 10
383.417241
 20
429.2928100000001
 10
383.2261100000001
 20
429.072191
 10
383.0247660000001
 20
428.8610169999999
 10
382.8135930000001
 20
428.6596730000001
 10
382.592973
 20
428.4685420000001
 10
382.36329
 20
428.2880070000001
 10
382.1249270000001
 20
428.1184510000001
 10
381.8782680000001
 20
427.9602580000001
 10
381.6236940000001
 20
427.81381
 10
381.361591
 20
427.679491
 10
381.09234
 20
427.5576840000001
 10
380.8163250000001
 20
427.4487710000001
 10
380.53393
 20
427.3531379999999
 10
380.245536
 20
427.2711650000001
 10
379.951529
 20
427.2032380000001
 10
379.6522900000001
 20
427.149739
 10
379.3482030000001
 20
427.11105
 10
379.039651
 20
427.0875559999999
 10
378.727018
 20
427.0796400000001
  0
LWPOLYLINE
  5
6B
330
1F
100
AcDbEntity
  8
Depth_2mm
  6
Continuous
 62
     3
420
    65280
370
    25
100
AcDbPolyline
 90
       77
 70
     1
 43
0.0
 10
176.894505
 20
439.2378920000001
 10
176.894505
 20
437.3381650000001
 10
176.894505
 20
433.158766
 10
176.894505
 20
428.9793670000001
 10
176.894505
 20
427.0796400000001
 10
176.059111
 20
427.0796400000001
 10
174.221244
 20
427.0796400000001
 10
172.383376
 20
427.0796400000001
 10
171.547982
 20
427.0796400000001
 10
171.235349
 20
427.0875559999999
 10
170.926797
 20
427.11105
 10
170.62271
 20
427.149739
 10
170.323471
 20
427.2032380000001
 10
170.029464
 20
427.2711650000001
 10
169.74107
 20
427.3531379999999
 10
169.458675
 20
427.4487710000001
 10
169.18266
 20
427.5576840000001
 10
168.913409
 20
427.679491
 10
168.651306
 20
427.81381
 10
168.396732
 20
427.9602580000001
 10
168.150073
 20
428.1184510000001
 10
167.91171
 20
428.2880070000001
 10
167.682027
 20
428.4685420000001
 10
167.461407
 20
428.6596730000001
 10
167.250234
 20
428.8610169999999
 10
167.04889
 20
429.072191
 10
166.857759
 20
429.2928100000001
 10
166.677224
 20
429.5224929999999
 10
166.507668
 20
429.7608560000001
 10
166.349474
 20
430.0075160000001
 10
166.203027
 20
430.2620890000001
 10
166.068707
 20
430.524193
 10
165.9469
 20
430.7934440000001
 10
165.837988
 20
431.0694590000001
 10
165.742354
 20
431.351854
 10
165.660382
 20
431.640247
 10
165.592455
 20
431.9342550000001
 10
165.538955
 20
432.2334940000001
 10
165.500267
 20
432.537581
 10
165.476773
 20
432.8461320000001
 10
165.468856
 20
433.158766
 10
165.476773
 20
433.471399
 10
165.500267
 20
433.7799509999999
 10
165.538955
 20
434.084037
 10
165.592455
 20
434.383276
 10
165.660382
 20
434.6772840000001
 10
165.742354
 20
434.9656770000001
 10
165.837988
 20
435.248073
 10
165.9469
 20
435.5240880000001
 10
166.068707
 20
435.7933379999999
 10
166.203027
 20
436.0554420000001
 10
166.349474
 20
436.310015
 10
166.507668
 20
436.556675
 10
166.677224
 20
436.795038
 10
166.857759
 20
437.024721
 10
167.04889
 20
437.2453410000001
 10
167.250234
 20
437.456514
 10
167.461407
 20
437.657858
 10
167.682027
 20
437.8489890000001
 10
167.91171
 20
438.029524
 10
168.150073
 20
438.1990800000001
 10
168.396732
 20
438.357273
 10
168.651306
 20
438.503721
 10
168.913409
 20
438.6380410000001
 10
169.18266
 20
438.7598480000001
 10
169.458675
 20
438.8687600000001
 10
169.74107
 20
438.9643940000001
 10
170.029464
 20
439.046366
 10
170.323471
 20
439.1142930000001
 10
170.62271
 20
439.1677930000001
 10
170.926797
 20
439.2064809999999
 10
171.235349
 20
439.229975
 10
171.547982
 20
439.2378920000001
 10
172.383376
 20
439.2378920000001
 10
174.221244
 20
439.2378920000001
 10
176.059111
 20
439.2378920000001
 10
176.894505
 20
439.2378920000001
  0
VIEWPORT
  5
70
330
6C
100
AcDbEntity
 67
     1
  8
0
100
AcDbViewport
 10
128.5
 20
97.5
 30
0.0
 40
314.226
 41
222.18
 68
     1
 69
     1
 12
275.1375
 22
275.1375
 13
0.0
 23
0.0
 14
10.0
 24
10.0
 15
10.0
 25
10.0
 16
0.0
 26
0.0
 36
1.0
 17
0.0
 27
0.0
 37
0.0
 42
50.0
 43
0.0
 44
0.0
 45
222.18
 50
0.0
 51
0.0
 72
   100
 90
   557152
  1

281
     0
 71
     1
 74
     0
110
0.0
120
0.0
130
0.0
111
1.0
121
0.0
131
0.0
112
0.0
122
1.0
132
0.0
 79
     0
146
0.0
170
     0
 61
     5
348
2F
292
     1
282
     1
141
0.0
142
0.0
 63
   256
361
71
  0
VIEWPORT
  5
72
330
6C
100
AcDbEntity
 67
     1
  8
0
100
AcDbViewport
 10
275.1375
 20
275.1375
 30
0.0
 40
550.275
 41
550.275
 68
     2
 69
     2
 12
275.1375
 22
275.1375
 13
0.0
 23
0.0
 14
10.0
 24
10.0
 15
10.0
 25
10.0
 16
0.0
 26
0.0
 36
1.0
 17
0.0
 27
0.0
 37
0.0
 42
50.0
 43
0.0
 44
0.0
 45
550.275
 50
0.0
 51
0.0
 72
   100
 90
   557152
  1

281
     0
 71
     1
 74
     0
110
0.0
120
0.0
130
0.0
111
1.0
121
0.0
131
0.0
112
0.0
122
1.0
132
0.0
 79
     0
146
0.0
170
     0
 61
     5
348
2F
292
     1
282
     1
141
0.0
142
0.0
 63
   256
361
73
  0
ENDSEC
  0
SECTION
  2
OBJECTS
  0
DICTIONARY
  5
C
330
0
100
AcDbDictionary
281
     1
  3
ACAD_DETAILVIEWSTYLE
350
7B
  3
ACAD_GROUP
350
D
  3
ACAD_LAYOUT
350
1A
  3
ACAD_MATERIAL
350
43
  3
ACAD_MLEADERSTYLE
350
5B
  3
ACAD_MLINESTYLE
350
17
  3
ACAD_PLOTSETTINGS
350
19
  3
ACAD_PLOTSTYLENAME
350
E
  3
ACAD_SCALELIST
350
47
  3
ACAD_SECTIONVIEWSTYLE
350
7C
  3
ACAD_TABLESTYLE
350
59
  3
ACAD_VISUALSTYLE
350
2A
  3
ACDB_RECOMPOSE_DATA
350
78
  3
AcDbVariableDictionary
350
74
  0
SUN
  5
5D
330
29
100
AcDbSun
 90
        1
290
     0
 63
     7
421
 16777215
 40
1.0
291
     1
 91
  2455826
 92
 54000000
292
     0
 70
     2
 71
   256
280
     1
  0
SUN
  5
71
330
70
100
AcDbSun
 90
        1
290
     0
 63
     7
421
 16777215
 40
1.0
291
     1
 91
  2455826
 92
 54000000
292
     0
 70
     2
 71
   256
280
     1
  0
SUN
  5
73
330
72
100
AcDbSun
 90
        1
290
     0
 63
     7
421
 16777215
 40
1.0
291
     1
 91
  2455826
 92
 54000000
292
     0
 70
     2
 71
   256
280
     1
  0
DICTIONARY
  5
7B
102
{ACAD_REACTORS
330
C
102
}
330
C
100
AcDbDictionary
281
     1
  0
DICTIONARY
  5
D
102
{ACAD_REACTORS
330
C
102
}
330
C
100
AcDbDictionary
281
     1
  0
DICTIONARY
  5
1A
102
{ACAD_REACTORS
330
C
102
}
330
C
100
AcDbDictionary
281
     1
  3
Layout1
350
6D
  3
Model
350
22
  0
DICTIONARY
  5
43
102
{ACAD_REACTORS
330
C
102
}
330
C
100
AcDbDictionary
281
     1
  3
ByBlock
350
45
  3
ByLayer
350
44
  3
Global
350
46
  0
DICTIONARY
  5
5B
102
{ACAD_REACTORS
330
C
102
}
330
C
100
AcDbDictionary
281
     1
  3
Standard
350
5C
  0
DICTIONARY
  5
17
102
{ACAD_REACTORS
330
C
102
}
330
C
100
AcDbDictionary
281
     1
  3
Standard
350
18
  0
DICTIONARY
  5
19
102
{ACAD_REACTORS
330
C
102
}
330
C
100
AcDbDictionary
281
     1
  0
ACDBDICTIONARYWDFLT
  5
E
102
{ACAD_REACTORS
330
C
102
}
330
C
100
AcDbDictionary
281
     1
  3
Normal
350
F
100
AcDbDictionaryWithDefault
340
F
  0
DICTIONARY
  5
47
102
{ACAD_REACTORS
330
C
102
}
330
C
100
AcDbDictionary
281
     1
  3
A0
350
48
  3
A1
350
49
  3
A2
350
4A
  3
A3
350
4B
  3
A4
350
4C
  3
A5
350
4D
  3
A6
350
4E
  3
A7
350
4F
  3
A8
350
50
  3
A9
350
51
  3
B0
350
52
  3
B1
350
53
  3
B2
350
54
  3
B3
350
55
  3
B4
350
56
  3
B5
350
57
  3
B6
350
58
  0
DICTIONARY
  5
7C
102
{ACAD_REACTORS
330
C
102
}
330
C
100
AcDbDictionary
281
     1
  0
DICTIONARY
  5
59
102
{ACAD_REACTORS
330
C
102
}
330
C
100
AcDbDictionary
281
     1
  3
Standard
350
5A
  0
DICTIONARY
  5
2A
102
{ACAD_REACTORS
330
C
102
}
330
C
100
AcDbDictionary
281
     1
  3
2dWireframe
350
2F
  3
Basic
350
32
  3
Brighten
350
36
  3
ColorChange
350
3A
  3
Conceptual
350
34
  3
Dim
350
35
  3
EdgeColorOff
350
3D
  3
Facepattern
350
39
  3
Flat
350
2B
  3
FlatWithEdges
350
2C
  3
Gouraud
350
2D
  3
GouraudWithEdges
350
2E
  3
Hidden
350
31
  3
JitterOff
350
3B
  3
Linepattern
350
38
  3
OverhangOff
350
3C
  3
Realistic
350
33
  3
Shaded
350
42
  3
Shaded with edges
350
41
  3
Shades of Gray
350
3E
  3
Sketchy
350
3F
  3
Thicken
350
37
  3
Wireframe
350
30
  3
X-Ray
350
40
  0
XRECORD
  5
78
102
{ACAD_REACTORS
330
C
102
}
330
C
100
AcDbXrecord
280
     1
 90
        1
330
5A
  0
DICTIONARY
  5
74
102
{ACAD_REACTORS
330
C
102
}
330
C
100
AcDbDictionary
281
     1
  3
CANNOSCALE
350
75
  3
CENTEREXE
350
7D
  3
CENTERLTYPEFILE
350
7E
  3
CMLEADERSTYLE
350
7A
  3
CTABLESTYLE
350
79
  0
LAYOUT
  5
6D
102
{ACAD_REACTORS
330
1A
102
}
330
1A
100
AcDbPlotSettings
  1

  2
none_device
  4
ISO_A4_(210.00_x_297.00_MM)
  6

 40
0.0
 41
0.0
 42
0.0
 43
0.0
 44
550.275
 45
550.275
 46
0.0
 47
0.0
 48
0.0
 49
0.0
140
0.0
141
0.0
142
1.0
143
1.0
 70
   688
 72
     1
 73
     0
 74
     5
  7

 75
    16
 76
     0
 77
     2
 78
   300
147
1.0
148
0.0
149
0.0
100
AcDbLayout
  1
Layout1
 70
     1
 71
     1
 10
-20.0
 20
-7.5
 11
277.0
 21
202.5
 12
0.0
 22
0.0
 32
0.0
 14
550.275
 24
550.275
 34
0.0
 15
0.0
 25
0.0
 35
0.0
146
0.0
 13
0.0
 23
0.0
 33
0.0
 16
1.0
 26
0.0
 36
0.0
 17
0.0
 27
1.0
 37
0.0
 76
     0
330
6C
331
70
  0
LAYOUT
  5
22
102
{ACAD_REACTORS
330
1A
102
}
330
1A
100
AcDbPlotSettings
  1

  2
none_device
  4
Letter_(8.50_x_11.00_Inches)
  6

 40
6.35
 41
6.35
 42
6.35000508
 43
6.35000508
 44
215.9
 45
279.4
 46
0.0
 47
0.0
 48
0.0
 49
0.0
140
0.0
141
0.0
142
1.0
143
1.0
 70
  1712
 72
     1
 73
     0
 74
     0
  7

 75
     0
 76
     0
 77
     2
 78
   300
147
1.0
148
0.0
149
0.0
100
AcDbLayout
  1
Model
 70
     1
 71
     0
 10
0.0
 20
0.0
 11
420.0
 21
297.0
 12
0.0
 22
0.0
 32
0.0
 14
1.000000000000000E+20
 24
1.000000000000000E+20
 34
1.000000000000000E+20
 15
-1.000000000000000E+20
 25
-1.000000000000000E+20
 35
-1.000000000000000E+20
146
0.0
 13
0.0
 23
0.0
 33
0.0
 16
1.0
 26
0.0
 36
0.0
 17
0.0
 27
1.0
 37
0.0
 76
     0
330
1F
331
29
  0
MATERIAL
  5
45
102
{ACAD_REACTORS
330
43
102
}
330
43
100
AcDbMaterial
  1
ByBlock
 72
     1
 94
      127
  0
MATERIAL
  5
44
102
{ACAD_REACTORS
330
43
102
}
330
43
100
AcDbMaterial
  1
ByLayer
 72
     1
 94
      127
  0
MATERIAL
  5
46
102
{ACAD_REACTORS
330
43
102
}
330
43
100
AcDbMaterial
  1
Global
 72
     1
 94
      127
  0
MLEADERSTYLE
  5
5C
102
{ACAD_REACTORS
330
5B
102
}
330
5B
100
AcDbMLeaderStyle
179
     2
170
     2
171
     1
172
     0
 90
        2
 40
0.0
 41
0.0
173
     1
 91
-1056964608
340
14
 92
       -2
290
     1
 42
2.0
291
     1
 43
8.0
  3
Standard
341
0
 44
4.0
300

342
11
174
     1
178
     6
175
     1
176
     0
 93
-1056964608
 45
4.0
292
     0
297
     0
 46
4.0
343
0
 94
-1056964608
 47
1.0
 49
1.0
140
1.0
293
     1
141
0.0
294
     1
177
     0
142
1.0
295
     0
296
     0
143
3.75
271
     0
272
     9
273
     9
298
     0
  0
MLINESTYLE
  5
18
102
{ACAD_REACTORS
330
17
102
}
330
17
100
AcDbMlineStyle
  2
Standard
 70
     0
  3

 62
   256
 51
90.0
 52
90.0
 71
     2
 49
0.5
 62
   256
  6
BYLAYER
 49
-0.5
 62
   256
  6
BYLAYER
  0
ACDBPLACEHOLDER
  5
F
102
{ACAD_REACTORS
330
E
102
}
330
E
  0
SCALE
  5
48
102
{ACAD_REACTORS
330
47
102
}
330
47
100
AcDbScale
 70
     0
300
1:1
140
1.0
141
1.0
290
     1
  0
SCALE
  5
49
102
{ACAD_REACTORS
330
47
102
}
330
47
100
AcDbScale
 70
     0
300
1:2
140
1.0
141
2.0
290
     0
  0
SCALE
  5
4A
102
{ACAD_REACTORS
330
47
102
}
330
47
100
AcDbScale
 70
     0
300
1:4
140
1.0
141
4.0
290
     0
  0
SCALE
  5
4B
102
{ACAD_REACTORS
330
47
102
}
330
47
100
AcDbScale
 70
     0
300
1:5
140
1.0
141
5.0
290
     0
  0
SCALE
  5
4C
102
{ACAD_REACTORS
330
47
102
}
330
47
100
AcDbScale
 70
     0
300
1:8
140
1.0
141
8.0
290
     0
  0
SCALE
  5
4D
102
{ACAD_REACTORS
330
47
102
}
330
47
100
AcDbScale
 70
     0
300
1:10
140
1.0
141
10.0
290
     0
  0
SCALE
  5
4E
102
{ACAD_REACTORS
330
47
102
}
330
47
100
AcDbScale
 70
     0
300
1:16
140
1.0
141
16.0
290
     0
  0
SCALE
  5
4F
102
{ACAD_REACTORS
330
47
102
}
330
47
100
AcDbScale
 70
     0
300
1:20
140
1.0
141
20.0
290
     0
  0
SCALE
  5
50
102
{ACAD_REACTORS
330
47
102
}
330
47
100
AcDbScale
 70
     0
300
1:30
140
1.0
141
30.0
290
     0
  0
SCALE
  5
51
102
{ACAD_REACTORS
330
47
102
}
330
47
100
AcDbScale
 70
     0
300
1:40
140
1.0
141
40.0
290
     0
  0
SCALE
  5
52
102
{ACAD_REACTORS
330
47
102
}
330
47
100
AcDbScale
 70
     0
300
1:50
140
1.0
141
50.0
290
     0
  0
SCALE
  5
53
102
{ACAD_REACTORS
330
47
102
}
330
47
100
AcDbScale
 70
     0
300
1:100
140
1.0
141
100.0
290
     0
  0
SCALE
  5
54
102
{ACAD_REACTORS
330
47
102
}
330
47
100
AcDbScale
 70
     0
300
2:1
140
2.0
141
1.0
290
     0
  0
SCALE
  5
55
102
{ACAD_REACTORS
330
47
102
}
330
47
100
AcDbScale
 70
     0
300
4:1
140
4.0
141
1.0
290
     0
  0
SCALE
  5
56
102
{ACAD_REACTORS
330
47
102
}
330
47
100
AcDbScale
 70
     0
300
8:1
140
8.0
141
1.0
290
     0
  0
SCALE
  5
57
102
{ACAD_REACTORS
330
47
102
}
330
47
100
AcDbScale
 70
     0
300
10:1
140
10.0
141
1.0
290
     0
  0
SCALE
  5
58
102
{ACAD_REACTORS
330
47
102
}
330
47
100
AcDbScale
 70
     0
300
100:1
140
100.0
141
1.0
290
     0
  0
TABLESTYLE
  5
5A
102
{ACAD_REACTORS
330
59
102
}
102
{ACAD_XDICTIONARY
360
76
102
}
330
59
100
AcDbTableStyle
  3
Standard
 70
     0
 71
     0
 40
0.06
 41
0.06
280
     0
281
     0
  7
Standard
140
4.5
170
     2
 62
     0
 63
   257
283
     0
 90
        4
 91
        0
  1

274
    -2
284
     1
 64
     0
275
    -2
285
     1
 65
     0
276
    -2
286
     1
 66
     0
277
    -2
287
     1
 67
     0
278
    -2
288
     1
 68
     0
279
    -2
289
     1
 69
     0
  7
Standard
140
6.0
170
     5
 62
     0
 63
   257
283
     0
 90
        4
 91
        0
  1

274
    -2
284
     1
 64
     0
275
    -2
285
     1
 65
     0
276
    -2
286
     1
 66
     0
277
    -2
287
     1
 67
     0
278
    -2
288
     1
 68
     0
279
    -2
289
     1
 69
     0
  7
Standard
140
4.5
170
     5
 62
     0
 63
   257
283
     0
 90
        4
 91
        0
  1

274
    -2
284
     1
 64
     0
275
    -2
285
     1
 65
     0
276
    -2
286
     1
 66
     0
277
    -2
287
     1
 67
     0
278
    -2
288
     1
 68
     0
279
    -2
289
     1
 69
     0
  0
VISUALSTYLE
  5
2F
102
{ACAD_REACTORS
330
2A
102
}
330
2A
100
AcDbVisualStyle
  2
2dWireframe
 70
     4
177
     3
291
     0
 70
    58
 90
        0
176
     1
 90
        2
176
     1
 90
        0
176
     1
 90
        0
176
     1
 40
0.6
176
     1
 40
30.0
176
     1
 62
     7
420
 16777215
176
     1
 90
        1
176
     1
 90
        4
176
     1
 62
     7
176
     1
 62
   257
176
     1
 90
        1
176
     1
 90
        1
176
     1
 40
1.0
176
     1
 90
        0
176
     1
 62
   257
176
     1
 40
1.0
176
     1
 90
        1
176
     1
 90
        6
176
     1
 90
        2
176
     1
 62
     7
176
     1
 90
        5
176
     1
 90
        0
176
     1
 90
        0
176
     1
290
     0
176
     1
 90
        1
176
     1
 40
0.0
176
     1
 90
        0
176
     1
290
     1
176
     1
290
     1
176
     1
290
     0
176
     1
290
     0
176
     1
290
     0
176
     1
290
     0
176
     1
290
     0
176
     1
290
     0
176
     1
290
     0
176
     1
 90
       50
176
     1
 40
0.0
176
     1
 40
1.0
176
     1
 90
        0
176
     1
 62
    18
420
        0
176
     1
 90
       50
176
     1
 90
        3
176
     1
 62
     5
420
      255
176
     1
290
     0
176
     1
 90
       50
176
     1
 90
       50
176
     1
 90
       50
176
     1
290
     0
176
     1
 90
       50
176
     1
 62
   256
176
     0
 40
1.0
176
     0
 90
        2
176
     1
  1
strokes_ogs.tif
176
     1
290
     0
176
     1
 40
1.0
176
     1
 40
1.0
176
     1
  0
VISUALSTYLE
  5
32
102
{ACAD_REACTORS
330
2A
102
}
330
2A
100
AcDbVisualStyle
  2
Basic
 70
     7
177
     3
291
     1
 70
    58
 90
        1
176
     1
 90
        0
176
     1
 90
        1
176
     1
 90
        0
176
     1
 40
0.6
176
     1
 40
30.0
176
     1
 62
     7
420
 16777215
176
     1
 90
        0
176
     1
 90
        4
176
     1
 62
     7
176
     1
 62
   257
176
     1
 90
        1
176
     1
 90
        1
176
     1
 40
1.0
176
     1
 90
        8
176
     1
 62
     7
176
     1
 40
1.0
176
     1
 90
        1
176
     1
 90
        6
176
     1
 90
        2
176
     1
 62
     7
176
     1
 90
        5
176
     1
 90
        0
176
     1
 90
        0
176
     1
290
     0
176
     1
 90
        1
176
     1
 40
0.0
176
     1
 90
        0
176
     1
290
     0
176
     1
290
     1
176
     1
290
     1
176
     1
290
     0
176
     1
290
     0
176
     1
290
     0
176
     1
290
     0
176
     1
290
     0
176
     1
290
     0
176
     1
 90
       50
176
     1
 40
0.0
176
     1
 40
1.0
176
     1
 90
        0
176
     1
 62
    18
420
        0
176
     1
 90
       50
176
     1
 90
        3
176
     1
 62
     5
420
      255
176
     1
290
     0
176
     1
 90
       50
176
     1
 90
       50
176
     1
 90
       50
176
     1
290
     0
176
     1
 90
       50
176
     1
 62
   256
176
     0
 40
1.0
176
     0
 90
        2
176
     1
  1
strokes_ogs.tif
176
     1
290
     0
176
     1
 40
1.0
176
     1
 40
1.0
176
     1
  0
VISUALSTYLE
  5
36
102
{ACAD_REACTORS
330
2A
102
}
330
2A
100
AcDbVisualStyle
  2
Brighten
 70
    12
177
     3
291
     1
 70
    58
 90
        2
176
     1
 90
        2
176
     1
 90
        0
176
     1
 90
        0
176
     1
 40
0.6
176
     1
 40
30.0
176
     1
 62
     7
420
 16777215
176
     1
 90
        1
176
     1
 90
        4
176
     1
 62
     7
176
     1
 62
   257
176
     1
 90
        1
176
     1
 90
        1
176
     1
 40
1.0
176
     1
 90
        8
176
     1
 62
     7
176
     1
 40
1.0
176
     1
 90
        1
176
     1
 90
        6
176
     1
 90
        2
176
     1
 62
     7
176
     1
 90
        5
176
     1
 90
        0
176
     1
 90
        0
176
     1
290
     0
176
     1
 90
        1
176
     1
 40
50.0
176
     1
 90
        0
176
     1
290
     0
176
     1
290
     1
176
     1
290
     1
176
     1
290
     0
176
     1
290
     0
176
     1
290
     0
176
     1
290
     0
176
     1
290
     0
176
     1
290
     0
176
     1
 90
       50
176
     1
 40
0.0
176
     1
 40
1.0
176
     1
 90
        0
176
     1
 62
    18
420
        0
176
     1
 90
       50
176
     1
 90
        3
176
     1
 62
     5
420
      255
176
     1
290
     0
176
     1
 90
       50
176
     1
 90
       50
176
     1
 90
       50
176
     1
290
     0
176
     1
 90
       50
176
     1
 62
   256
176
     0
 40
1.0
176
     0
 90
        2
176
     1
  1
strokes_ogs.tif
176
     1
290
     0
176
     1
 40
1.0
176
     1
 40
1.0
176
     1
  0
VISUALSTYLE
  5
3A
102
{ACAD_REACTORS
330
2A
102
}
330
2A
100
AcDbVisualStyle
  2
ColorChange
 70
    16
177
     3
291
     1
 70
    58
 90
        2
176
     1
 90
        2
176
     1
 90
        3
176
     1
 90
        0
176
     1
 40
0.6
176
     1
 40
30.0
176
     1
 62
     8
420
  8421504
176
     1
 90
        1
176
     1
 90
        4
176
     1
 62
     7
176
     1
 62
   257
176
     1
 90
        1
176
     1
 90
        1
176
     1
 40
1.0
176
     1
 90
        8
176
     1
 62
     8
420
  8421504
176
     1
 40
1.0
176
     1
 90
        1
176
     1
 90
        6
176
     1
 90
        2
176
     1
 62
     7
176
     1
 90
        5
176
     1
 90
        0
176
     1
 90
        0
176
     1
290
     0
176
     1
 90
        1
176
     1
 40
0.0
176
     1
 90
        0
176
     1
290
     0
176
     1
290
     1
176
     1
290
     1
176
     1
290
     0
176
     1
290
     0
176
     1
290
     0
176
     1
290
     0
176
     1
290
     0
176
     1
290
     0
176
     1
 90
       50
176
     1
 40
0.0
176
     1
 40
1.0
176
     1
 90
        0
176
     1
 62
    18
420
        0
176
     1
 90
       50
176
     1
 90
        3
176
     1
 62
     5
420
      255
176
     1
290
     0
176
     1
 90
       50
176
     1
 90
       50
176
     1
 90
       50
176
     1
290
     0
176
     1
 90
       50
176
     1
 62
   256
176
     0
 40
1.0
176
     0
 90
        2
176
     1
  1
strokes_ogs.tif
176
     1
290
     0
176
     1
 40
1.0
176
     1
 40
1.0
176
     1
  0
VISUALSTYLE
  5
34
102
{ACAD_REACTORS
330
2A
102
}
330
2A
100
AcDbVisualStyle
  2
Conceptual
 70
     9
177
     3
291
     0
 70
    58
 90
        3
176
     1
 90
        2
176
     1
 90
        0
176
     1
 90
        0
176
     1
 40
0.6
176
     1
 40
30.0
176
     1
 62
     7
420
 16777215
176
     1
 90
        2
176
     1
 90
        2
176
     1
 62
     7
176
     1
 62
   257
176
     1
 90
        1
176
     1
 90
        1
176
     1
 40
179.0
176
     1
 90
        8
176
     1
 62
     7
176
     1
 40
1.0
176
     1
 90
        1
176
     1
 90
        6
176
     1
 90
        2
176
     1
 62
     7
176
     1
 90
        3
176
     1
 90
        0
176
     1
 90
        0
176
     1
290
     0
176
     1
 90
        1
176
     1
 40
0.0
176
     1
 90
        0
176
     1
290
     0
176
     1
290
     1
176
     1
290
     1
176
     1
290
     0
176
     1
290
     0
176
     1
290
     0
176
     1
290
     0
176
     1
290
     0
176
     1
290
     0
176
     1
 90
       50
176
     1
 40
0.0
176
     1
 40
1.0
176
     1
 90
        0
176
     1
 62
    18
420
        0
176
     1
 90
       50
176
     1
 90
        3
176
     1
 62
     5
420
      255
176
     1
290
     0
176
     1
 90
       50
176
     1
 90
       50
176
     1
 90
       50
176
     1
290
     0
176
     1
 90
       50
176
     1
 62
   256
176
     0
 40
1.0
176
     0
 90
        2
176
     1
  1
strokes_ogs.tif
176
     1
290
     0
176
     1
 40
1.0
176
     1
 40
1.0
176
     1
  0
VISUALSTYLE
  5
35
102
{ACAD_REACTORS
330
2A
102
}
330
2A
100
AcDbVisualStyle
  2
Dim
 70
    11
177
     3
291
     1
 70
    58
 90
        2
176
     1
 90
        2
176
     1
 90
        0
176
     1
 90
        0
176
     1
 40
0.6
176
     1
 40
30.0
176
     1
 62
     7
420
 16777215
176
     1
 90
        1
176
     1
 90
        4
176
     1
 62
     7
176
     1
 62
   257
176
     1
 90
        1
176
     1
 90
        1
176
     1
 40
1.0
176
     1
 90
        8
176
     1
 62
     7
176
     1
 40
1.0
176
     1
 90
        1
176
     1
 90
        6
176
     1
 90
        2
176
     1
 62
     7
176
     1
 90
        5
176
     1
 90
        0
176
     1
 90
        0
176
     1
290
     0
176
     1
 90
        1
176
     1
 40
-50.0
176
     1
 90
        0
176
     1
290
     0
176
     1
290
     1
176
     1
290
     1
176
     1
290
     0
176
     1
290
     0
176
     1
290
     0
176
     1
290
     0
176
     1
290
     0
176
     1
290
     0
176
     1
 90
       50
176
     1
 40
0.0
176
     1
 40
1.0
176
     1
 90
        0
176
     1
 62
    18
420
        0
176
     1
 90
       50
176
     1
 90
        3
176
     1
 62
     5
420
      255
176
     1
290
     0
176
     1
 90
       50
176
     1
 90
       50
176
     1
 90
       50
176
     1
290
     0
176
     1
 90
       50
176
     1
 62
   256
176
     0
 40
1.0
176
     0
 90
        2
176
     1
  1
strokes_ogs.tif
176
     1
290
     0
176
     1
 40
1.0
176
     1
 40
1.0
176
     1
  0
VISUALSTYLE
  5
3D
102
{ACAD_REACTORS
330
2A
102
}
330
2A
100
AcDbVisualStyle
  2
EdgeColorOff
 70
    22
177
     3
291
     1
 70
    58
 90
        2
176
     0
 90
        2
176
     0
 90
        0
176
     0
 90
        0
176
     0
 40
0.6
176
     0
 40
30.0
176
     0
 62
     7
420
 16777215
176
     0
 90
        1
176
     0
 90
        4
176
     0
 62
     7
176
     0
 62
   257
176
     0
 90
        1
176
     0
 90
        1
176
     0
 40
1.0
176
     0
 90
        8
176
     2
 62
     7
176
     0
 40
1.0
176
     0
 90
        1
176
     0
 90
        6
176
     0
 90
        2
176
     0
 62
     7
176
     0
 90
        5
176
     0
 90
        0
176
     0
 90
        0
176
     0
290
     0
176
     0
 90
        1
176
     0
 40
0.0
176
     0
 90
        0
176
     0
290
     0
176
     0
290
     1
176
     0
290
     1
176
     0
290
     0
176
     0
290
     0
176
     0
290
     0
176
     0
290
     0
176
     0
290
     0
176
     0
290
     0
176
     0
 90
       50
176
     0
 40
0.0
176
     0
 40
1.0
176
     0
 90
        0
176
     0
 62
    18
420
        0
176
     0
 90
       50
176
     0
 90
        3
176
     0
 62
     5
420
      255
176
     0
290
     0
176
     0
 90
       50
176
     0
 90
       50
176
     0
 90
       50
176
     0
290
     0
176
     0
 90
       50
176
     0
 62
   256
176
     0
 40
1.0
176
     0
 90
        2
176
     0
  1
strokes_ogs.tif
176
     0
290
     0
176
     0
 40
1.0
176
     0
 40
1.0
176
     0
  0
VISUALSTYLE
  5
39
102
{ACAD_REACTORS
330
2A
102
}
330
2A
100
AcDbVisualStyle
  2
Facepattern
 70
    15
177
     3
291
     1
 70
    58
 90
        2
176
     1
 90
        2
176
     1
 90
        0
176
     1
 90
        0
176
     1
 40
0.6
176
     1
 40
30.0
176
     1
 62
     7
420
 16777215
176
     1
 90
        1
176
     1
 90
        4
176
     1
 62
     7
176
     1
 62
   257
176
     1
 90
        1
176
     1
 90
        1
176
     1
 40
1.0
176
     1
 90
        8
176
     1
 62
     7
176
     1
 40
1.0
176
     1
 90
        1
176
     1
 90
        6
176
     1
 90
        2
176
     1
 62
     7
176
     1
 90
        5
176
     1
 90
        0
176
     1
 90
        0
176
     1
290
     0
176
     1
 90
        1
176
     1
 40
0.0
176
     1
 90
        0
176
     1
290
     0
176
     1
290
     1
176
     1
290
     1
176
     1
290
     0
176
     1
290
     0
176
     1
290
     0
176
     1
290
     0
176
     1
290
     0
176
     1
290
     0
176
     1
 90
       50
176
     1
 40
0.0
176
     1
 40
1.0
176
     1
 90
        0
176
     1
 62
    18
420
        0
176
     1
 90
       50
176
     1
 90
        3
176
     1
 62
     5
420
      255
176
     1
290
     0
176
     1
 90
       50
176
     1
 90
       50
176
     1
 90
       50
176
     1
290
     0
176
     1
 90
       50
176
     1
 62
   256
176
     0
 40
1.0
176
     0
 90
        2
176
     1
  1
strokes_ogs.tif
176
     1
290
     0
176
     1
 40
1.0
176
     1
 40
1.0
176
     1
  0
VISUALSTYLE
  5
2B
102
{ACAD_REACTORS
330
2A
102
}
330
2A
100
AcDbVisualStyle
  2
Flat
 70
     0
177
     3
291
     1
 70
    58
 90
        2
176
     1
 90
        1
176
     1
 90
        1
176
     1
 90
        2
176
     1
 40
0.6
176
     1
 40
30.0
176
     1
 62
     7
420
 16777215
176
     1
 90
        0
176
     1
 90
        0
176
     1
 62
     7
176
     1
 62
   257
176
     1
 90
        1
176
     1
 90
        1
176
     1
 40
1.0
176
     1
 90
        8
176
     1
 62
     7
176
     1
 40
1.0
176
     1
 90
        1
176
     1
 90
        6
176
     1
 90
        2
176
     1
 62
     7
176
     1
 90
        5
176
     1
 90
        0
176
     1
 90
        0
176
     1
290
     0
176
     1
 90
       13
176
     1
 40
0.0
176
     1
 90
        0
176
     1
290
     0
176
     1
290
     1
176
     1
290
     1
176
     1
290
     0
176
     1
290
     0
176
     1
290
     0
176
     1
290
     0
176
     1
290
     0
176
     1
290
     0
176
     1
 90
       50
176
     1
 40
0.0
176
     1
 40
1.0
176
     1
 90
        0
176
     1
 62
    18
420
        0
176
     1
 90
       50
176
     1
 90
        3
176
     1
 62
     5
420
      255
176
     1
290
     0
176
     1
 90
       50
176
     1
 90
       50
176
     1
 90
       50
176
     1
290
     0
176
     1
 90
       50
176
     1
 62
   256
176
     0
 40
1.0
176
     0
 90
        2
176
     1
  1
strokes_ogs.tif
176
     1
290
     0
176
     1
 40
1.0
176
     1
 40
1.0
176
     1
  0
VISUALSTYLE
  5
2C
102
{ACAD_REACTORS
330
2A
102
}
330
2A
100
AcDbVisualStyle
  2
FlatWithEdges
 70
     1
177
     3
291
     1
 70
    58
 90
        2
176
     1
 90
        1
176
     1
 90
        1
176
     1
 90
        2
176
     1
 40
0.6
176
     1
 40
30.0
176
     1
 62
     7
420
 16777215
176
     1
 90
        1
176
     1
 90
        0
176
     1
 62
     7
176
     1
 62
   257
176
     1
 90
        1
176
     1
 90
        1
176
     1
 40
1.0
176
     1
 90
        0
176
     1
 62
   257
176
     1
 40
1.0
176
     1
 90
        1
176
     1
 90
        6
176
     1
 90
        2
176
     1
 62
     7
176
     1
 90
        5
176
     1
 90
        0
176
     1
 90
        0
176
     1
290
     0
176
     1
 90
       13
176
     1
 40
0.0
176
     1
 90
        0
176
     1
290
     0
176
     1
290
     1
176
     1
290
     1
176
     1
290
     0
176
     1
290
     0
176
     1
290
     0
176
     1
290
     0
176
     1
290
     0
176
     1
290
     0
176
     1
 90
       50
176
     1
 40
0.0
176
     1
 40
1.0
176
     1
 90
        0
176
     1
 62
    18
420
        0
176
     1
 90
       50
176
     1
 90
        3
176
     1
 62
     5
420
      255
176
     1
290
     0
176
     1
 90
       50
176
     1
 90
       50
176
     1
 90
       50
176
     1
290
     0
176
     1
 90
       50
176
     1
 62
   256
176
     0
 40
1.0
176
     0
 90
        2
176
     1
  1
strokes_ogs.tif
176
     1
290
     0
176
     1
 40
1.0
176
     1
 40
1.0
176
     1
  0
VISUALSTYLE
  5
2D
102
{ACAD_REACTORS
330
2A
102
}
330
2A
100
AcDbVisualStyle
  2
Gouraud
 70
     2
177
     3
291
     1
 70
    58
 90
        2
176
     1
 90
        2
176
     1
 90
        1
176
     1
 90
        2
176
     1
 40
0.6
176
     1
 40
30.0
176
     1
 62
     7
420
 16777215
176
     1
 90
        0
176
     1
 90
        0
176
     1
 62
     7
176
     1
 62
   257
176
     1
 90
        1
176
     1
 90
        1
176
     1
 40
1.0
176
     1
 90
        0
176
     1
 62
     7
176
     1
 40
1.0
176
     1
 90
        1
176
     1
 90
        6
176
     1
 90
        2
176
     1
 62
     7
176
     1
 90
        5
176
     1
 90
        0
176
     1
 90
        0
176
     1
290
     0
176
     1
 90
       13
176
     1
 40
0.0
176
     1
 90
        0
176
     1
290
     0
176
     1
290
     1
176
     1
290
     1
176
     1
290
     0
176
     1
290
     0
176
     1
290
     0
176
     1
290
     0
176
     1
290
     0
176
     1
290
     0
176
     1
 90
       50
176
     1
 40
0.0
176
     1
 40
1.0
176
     1
 90
        0
176
     1
 62
    18
420
        0
176
     1
 90
       50
176
     1
 90
        3
176
     1
 62
     5
420
      255
176
     1
290
     0
176
     1
 90
       50
176
     1
 90
       50
176
     1
 90
       50
176
     1
290
     0
176
     1
 90
       50
176
     1
 62
   256
176
     0
 40
1.0
176
     0
 90
        2
176
     1
  1
strokes_ogs.tif
176
     1
290
     0
176
     1
 40
1.0
176
     1
 40
1.0
176
     1
  0
VISUALSTYLE
  5
2E
102
{ACAD_REACTORS
330
2A
102
}
330
2A
100
AcDbVisualStyle
  2
GouraudWithEdges
 70
     3
177
     3
291
     1
 70
    58
 90
        2
176
     1
 90
        2
176
     1
 90
        1
176
     1
 90
        2
176
     1
 40
0.6
176
     1
 40
30.0
176
     1
 62
     7
420
 16777215
176
     1
 90
        1
176
     1
 90
        0
176
     1
 62
     7
176
     1
 62
   257
176
     1
 90
        1
176
     1
 90
        1
176
     1
 40
1.0
176
     1
 90
        0
176
     1
 62
   257
176
     1
 40
1.0
176
     1
 90
        1
176
     1
 90
        6
176
     1
 90
        2
176
     1
 62
     7
176
     1
 90
        5
176
     1
 90
        0
176
     1
 90
        0
176
     1
290
     0
176
     1
 90
       13
176
     1
 40
0.0
176
     1
 90
        0
176
     1
290
     0
176
     1
290
     1
176
     1
290
     1
176
     1
290
     0
176
     1
290
     0
176
     1
290
     0
176
     1
290
     0
176
     1
290
     0
176
     1
290
     0
176
     1
 90
       50
176
     1
 40
0.0
176
     1
 40
1.0
176
     1
 90
        0
176
     1
 62
    18
420
        0
176
     1
 90
       50
176
     1
 90
        3
176
     1
 62
     5
420
      255
176
     1
290
     0
176
     1
 90
       50
176
     1
 90
       50
176
     1
 90
       50
176
     1
290
     0
176
     1
 90
       50
176
     1
 62
   256
176
     0
 40
1.0
176
     0
 90
        2
176
     1
  1
strokes_ogs.tif
176
     1
290
     0
176
     1
 40
1.0
176
     1
 40
1.0
176
     1
  0
VISUALSTYLE
  5
31
102
{ACAD_REACTORS
330
2A
102
}
330
2A
100
AcDbVisualStyle
  2
Hidden
 70
     6
177
     3
291
     0
 70
    58
 90
        1
176
     1
 90
        2
176
     1
 90
        2
176
     1
 90
        0
176
     1
 40
0.6
176
     1
 40
30.0
176
     1
 62
     7
420
 16777215
176
     1
 90
        2
176
     1
 90
        2
176
     1
 62
     7
176
     1
 62
   257
176
     1
 90
        2
176
     1
 90
        1
176
     1
 40
40.0
176
     1
 90
        0
176
     1
 62
   257
176
     1
 40
1.0
176
     1
 90
        1
176
     1
 90
        6
176
     1
 90
        2
176
     1
 62
     7
176
     1
 90
        3
176
     1
 90
        0
176
     1
 90
        0
176
     1
290
     0
176
     1
 90
        1
176
     1
 40
0.0
176
     1
 90
        0
176
     1
290
     0
176
     1
290
     1
176
     1
290
     1
176
     1
290
     0
176
     1
290
     0
176
     1
290
     0
176
     1
290
     0
176
     1
290
     0
176
     1
290
     0
176
     1
 90
       50
176
     1
 40
0.0
176
     1
 40
1.0
176
     1
 90
        0
176
     1
 62
    18
420
        0
176
     1
 90
       50
176
     1
 90
        3
176
     1
 62
     5
420
      255
176
     1
290
     0
176
     1
 90
       50
176
     1
 90
       50
176
     1
 90
       50
176
     1
290
     0
176
     1
 90
       50
176
     1
 62
   256
176
     0
 40
1.0
176
     0
 90
        2
176
     1
  1
strokes_ogs.tif
176
     1
290
     0
176
     1
 40
1.0
176
     1
 40
1.0
176
     1
  0
VISUALSTYLE
  5
3B
102
{ACAD_REACTORS
330
2A
102
}
330
2A
100
AcDbVisualStyle
  2
JitterOff
 70
    20
177
     3
291
     1
 70
    58
 90
        2
176
     0
 90
        2
176
     0
 90
        0
176
     0
 90
        0
176
     0
 40
0.6
176
     0
 40
30.0
176
     0
 62
     7
420
 16777215
176
     0
 90
        1
176
     0
 90
        4
176
     0
 62
     7
176
     0
 62
   257
176
     0
 90
        1
176
     0
 90
        1
176
     0
 40
1.0
176
     0
 90
       10
176
     2
 62
     7
176
     0
 40
1.0
176
     0
 90
        1
176
     0
 90
        6
176
     0
 90
        2
176
     0
 62
     7
176
     0
 90
        5
176
     0
 90
        0
176
     0
 90
        0
176
     0
290
     0
176
     0
 90
        1
176
     0
 40
0.0
176
     0
 90
        0
176
     0
290
     0
176
     0
290
     1
176
     0
290
     1
176
     0
290
     0
176
     0
290
     0
176
     0
290
     0
176
     0
290
     0
176
     0
290
     0
176
     0
290
     0
176
     0
 90
       50
176
     0
 40
0.0
176
     0
 40
1.0
176
     0
 90
        0
176
     0
 62
    18
420
        0
176
     0
 90
       50
176
     0
 90
        3
176
     0
 62
     5
420
      255
176
     0
290
     0
176
     0
 90
       50
176
     0
 90
       50
176
     0
 90
       50
176
     0
290
     0
176
     0
 90
       50
176
     0
 62
   256
176
     0
 40
1.0
176
     0
 90
        2
176
     0
  1
strokes_ogs.tif
176
     0
290
     0
176
     0
 40
1.0
176
     0
 40
1.0
176
     0
  0
VISUALSTYLE
  5
38
102
{ACAD_REACTORS
330
2A
102
}
330
2A
100
AcDbVisualStyle
  2
Linepattern
 70
    14
177
     3
291
     1
 70
    58
 90
        2
176
     1
 90
        2
176
     1
 90
        0
176
     1
 90
        0
176
     1
 40
0.6
176
     1
 40
30.0
176
     1
 62
     7
420
 16777215
176
     1
 90
        1
176
     1
 90
        4
176
     1
 62
     7
176
     1
 62
   257
176
     1
 90
        7
176
     1
 90
        7
176
     1
 40
1.0
176
     1
 90
        8
176
     1
 62
     7
176
     1
 40
1.0
176
     1
 90
        1
176
     1
 90
        6
176
     1
 90
        2
176
     1
 62
     7
176
     1
 90
        5
176
     1
 90
        0
176
     1
 90
        0
176
     1
290
     0
176
     1
 90
        1
176
     1
 40
0.0
176
     1
 90
        0
176
     1
290
     0
176
     1
290
     1
176
     1
290
     1
176
     1
290
     0
176
     1
290
     0
176
     1
290
     0
176
     1
290
     0
176
     1
290
     0
176
     1
290
     0
176
     1
 90
       50
176
     1
 40
0.0
176
     1
 40
1.0
176
     1
 90
        0
176
     1
 62
    18
420
        0
176
     1
 90
       50
176
     1
 90
        3
176
     1
 62
     5
420
      255
176
     1
290
     0
176
     1
 90
       50
176
     1
 90
       50
176
     1
 90
       50
176
     1
290
     0
176
     1
 90
       50
176
     1
 62
   256
176
     0
 40
1.0
176
     0
 90
        2
176
     1
  1
strokes_ogs.tif
176
     1
290
     0
176
     1
 40
1.0
176
     1
 40
1.0
176
     1
  0
VISUALSTYLE
  5
3C
102
{ACAD_REACTORS
330
2A
102
}
330
2A
100
AcDbVisualStyle
  2
OverhangOff
 70
    21
177
     3
291
     1
 70
    58
 90
        2
176
     0
 90
        2
176
     0
 90
        0
176
     0
 90
        0
176
     0
 40
0.6
176
     0
 40
30.0
176
     0
 62
     7
420
 16777215
176
     0
 90
        1
176
     0
 90
        4
176
     0
 62
     7
176
     0
 62
   257
176
     0
 90
        1
176
     0
 90
        1
176
     0
 40
1.0
176
     0
 90
        9
176
     2
 62
     7
176
     0
 40
1.0
176
     0
 90
        1
176
     0
 90
        6
176
     0
 90
        2
176
     0
 62
     7
176
     0
 90
        5
176
     0
 90
        0
176
     0
 90
        0
176
     0
290
     0
176
     0
 90
        1
176
     0
 40
0.0
176
     0
 90
        0
176
     0
290
     0
176
     0
290
     1
176
     0
290
     1
176
     0
290
     0
176
     0
290
     0
176
     0
290
     0
176
     0
290
     0
176
     0
290
     0
176
     0
290
     0
176
     0
 90
       50
176
     0
 40
0.0
176
     0
 40
1.0
176
     0
 90
        0
176
     0
 62
    18
420
        0
176
     0
 90
       50
176
     0
 90
        3
176
     0
 62
     5
420
      255
176
     0
290
     0
176
     0
 90
       50
176
     0
 90
       50
176
     0
 90
       50
176
     0
290
     0
176
     0
 90
       50
176
     0
 62
   256
176
     0
 40
1.0
176
     0
 90
        2
176
     0
  1
strokes_ogs.tif
176
     0
290
     0
176
     0
 40
1.0
176
     0
 40
1.0
176
     0
  0
VISUALSTYLE
  5
33
102
{ACAD_REACTORS
330
2A
102
}
330
2A
100
AcDbVisualStyle
  2
Realistic
 70
     8
177
     3
291
     0
 70
    58
 90
        2
176
     1
 90
        3
176
     1
 90
        0
176
     1
 90
        2
176
     1
 40
0.6
176
     1
 40
30.0
176
     1
 62
     7
420
 16777215
176
     1
 90
        0
176
     1
 90
        0
176
     1
 62
     7
176
     1
 62
   257
176
     1
 90
        1
176
     1
 90
        1
176
     1
 40
1.0
176
     1
 90
        8
176
     1
 62
   257
176
     1
 40
1.0
176
     1
 90
        1
176
     1
 90
        6
176
     1
 90
        2
176
     1
 62
     7
176
     1
 90
        3
176
     1
 90
        0
176
     1
 90
        0
176
     1
290
     0
176
     1
 90
       13
176
     1
 40
0.0
176
     1
 90
        0
176
     1
290
     0
176
     1
290
     1
176
     1
290
     1
176
     1
290
     0
176
     1
290
     0
176
     1
290
     0
176
     1
290
     0
176
     1
290
     0
176
     1
290
     0
176
     1
 90
       50
176
     1
 40
0.0
176
     1
 40
1.0
176
     1
 90
        0
176
     1
 62
    18
420
        0
176
     1
 90
       50
176
     1
 90
        3
176
     1
 62
     5
420
      255
176
     1
290
     0
176
     1
 90
       50
176
     1
 90
       50
176
     1
 90
       50
176
     1
290
     0
176
     1
 90
       50
176
     1
 62
   256
176
     0
 40
1.0
176
     0
 90
        2
176
     1
  1
strokes_ogs.tif
176
     1
290
     0
176
     1
 40
1.0
176
     1
 40
1.0
176
     1
  0
VISUALSTYLE
  5
42
102
{ACAD_REACTORS
330
2A
102
}
330
2A
100
AcDbVisualStyle
  2
Shaded
 70
    27
177
     3
291
     0
 70
    58
 90
        2
176
     1
 90
        2
176
     1
 90
        1
176
     1
 90
        2
176
     1
 40
0.6
176
     1
 40
30.0
176
     1
 62
     7
420
 16777215
176
     1
 90
        0
176
     1
 90
        4
176
     1
 62
     7
176
     1
 62
   257
176
     1
 90
        1
176
     1
 90
        1
176
     1
 40
1.0
176
     1
 90
        8
176
     1
 62
   257
176
     1
 40
1.0
176
     1
 90
        1
176
     1
 90
        6
176
     1
 90
        2
176
     1
 62
     8
420
  7895160
176
     1
 90
        3
176
     1
 90
        0
176
     1
 90
        0
176
     1
290
     0
176
     1
 90
        5
176
     1
 40
0.0
176
     1
 90
        0
176
     1
290
     0
176
     1
290
     1
176
     1
290
     1
176
     1
290
     0
176
     1
290
     0
176
     1
290
     0
176
     1
290
     0
176
     1
290
     0
176
     1
290
     0
176
     1
 90
       50
176
     1
 40
0.0
176
     1
 40
1.0
176
     1
 90
        0
176
     1
 62
    18
420
        0
176
     1
 90
       50
176
     1
 90
        3
176
     1
 62
     5
420
      255
176
     1
290
     0
176
     1
 90
       50
176
     1
 90
       50
176
     1
 90
       50
176
     1
290
     0
176
     1
 90
       50
176
     1
 62
   256
176
     0
 40
1.0
176
     0
 90
        2
176
     1
  1
strokes_ogs.tif
176
     1
290
     0
176
     1
 40
1.0
176
     1
 40
1.0
176
     1
  0
VISUALSTYLE
  5
41
102
{ACAD_REACTORS
330
2A
102
}
330
2A
100
AcDbVisualStyle
  2
Shaded with edges
 70
    26
177
     3
291
     0
 70
    58
 90
        2
176
     1
 90
        2
176
     1
 90
        1
176
     1
 90
        2
176
     1
 40
0.6
176
     1
 40
30.0
176
     1
 62
     7
420
 16777215
176
     1
 90
        1
176
     1
 90
       10
176
     1
 62
     7
176
     1
 62
   257
176
     1
 90
        2
176
     1
 90
        1
176
     1
 40
1.0
176
     1
 90
        8
176
     1
 62
   257
176
     1
 40
1.0
176
     1
 90
        1
176
     1
 90
        6
176
     1
 90
        2
176
     1
 62
     7
176
     1
 90
        3
176
     1
 90
        0
176
     1
 90
        0
176
     1
290
     0
176
     1
 90
        5
176
     1
 40
0.0
176
     1
 90
        0
176
     1
290
     0
176
     1
290
     1
176
     1
290
     1
176
     1
290
     0
176
     1
290
     0
176
     1
290
     0
176
     1
290
     0
176
     1
290
     0
176
     1
290
     0
176
     1
 90
       50
176
     1
 40
0.0
176
     1
 40
1.0
176
     1
 90
        0
176
     1
 62
    18
420
        0
176
     1
 90
       50
176
     1
 90
        3
176
     1
 62
     5
420
      255
176
     1
290
     0
176
     1
 90
       50
176
     1
 90
       50
176
     1
 90
       50
176
     1
290
     0
176
     1
 90
       50
176
     1
 62
   256
176
     0
 40
1.0
176
     0
 90
        2
176
     1
  1
strokes_ogs.tif
176
     1
290
     0
176
     1
 40
1.0
176
     1
 40
1.0
176
     1
  0
VISUALSTYLE
  5
3E
102
{ACAD_REACTORS
330
2A
102
}
330
2A
100
AcDbVisualStyle
  2
Shades of Gray
 70
    23
177
     3
291
     0
 70
    58
 90
        2
176
     1
 90
        2
176
     1
 90
        3
176
     1
 90
        0
176
     1
 40
0.6
176
     1
 40
30.0
176
     1
 62
     7
420
 16777215
176
     1
 90
        2
176
     1
 90
        2
176
     1
 62
     7
176
     1
 62
     7
176
     1
 90
        1
176
     1
 90
        1
176
     1
 40
40.0
176
     1
 90
        8
176
     1
 62
     7
176
     1
 40
1.0
176
     1
 90
        1
176
     1
 90
        6
176
     1
 90
        2
176
     1
 62
     7
176
     1
 90
        3
176
     1
 90
        0
176
     1
 90
        0
176
     1
290
     0
176
     1
 90
        1
176
     1
 40
0.0
176
     1
 90
        0
176
     1
290
     0
176
     1
290
     1
176
     1
290
     1
176
     1
290
     0
176
     1
290
     0
176
     1
290
     0
176
     1
290
     0
176
     1
290
     0
176
     1
290
     0
176
     1
 90
       50
176
     1
 40
0.0
176
     1
 40
1.0
176
     1
 90
        0
176
     1
 62
    18
420
        0
176
     1
 90
       50
176
     1
 90
        3
176
     1
 62
     5
420
      255
176
     1
290
     0
176
     1
 90
       50
176
     1
 90
       50
176
     1
 90
       50
176
     1
290
     0
176
     1
 90
       50
176
     1
 62
   256
176
     0
 40
1.0
176
     0
 90
        2
176
     1
  1
strokes_ogs.tif
176
     1
290
     0
176
     1
 40
1.0
176
     1
 40
1.0
176
     1
  0
VISUALSTYLE
  5
3F
102
{ACAD_REACTORS
330
2A
102
}
330
2A
100
AcDbVisualStyle
  2
Sketchy
 70
    24
177
     3
291
     0
 70
    58
 90
        1
176
     1
 90
        2
176
     1
 90
        2
176
     1
 90
        0
176
     1
 40
0.6
176
     1
 40
30.0
176
     1
 62
     7
420
 16777215
176
     1
 90
        2
176
     1
 90
        2
176
     1
 62
     7
176
     1
 62
     7
176
     1
 90
        1
176
     1
 90
        1
176
     1
 40
40.0
176
     1
 90
       11
176
     1
 62
     7
176
     1
 40
1.0
176
     1
 90
        1
176
     1
 90
        6
176
     1
 90
        2
176
     1
 62
     7
176
     1
 90
        6
176
     1
 90
        0
176
     1
 90
        0
176
     1
290
     0
176
     1
 90
        1
176
     1
 40
0.0
176
     1
 90
        0
176
     1
290
     0
176
     1
290
     1
176
     1
290
     1
176
     1
290
     0
176
     1
290
     0
176
     1
290
     0
176
     1
290
     0
176
     1
290
     0
176
     1
290
     0
176
     1
 90
       50
176
     1
 40
0.0
176
     1
 40
1.0
176
     1
 90
        0
176
     1
 62
    18
420
        0
176
     1
 90
       50
176
     1
 90
        3
176
     1
 62
     5
420
      255
176
     1
290
     0
176
     1
 90
       50
176
     1
 90
       50
176
     1
 90
       50
176
     1
290
     0
176
     1
 90
       50
176
     1
 62
   256
176
     0
 40
1.0
176
     0
 90
        2
176
     1
  1
strokes_ogs.tif
176
     1
290
     0
176
     1
 40
1.0
176
     1
 40
1.0
176
     1
  0
VISUALSTYLE
  5
37
102
{ACAD_REACTORS
330
2A
102
}
330
2A
100
AcDbVisualStyle
  2
Thicken
 70
    13
177
     3
291
     1
 70
    58
 90
        2
176
     1
 90
        2
176
     1
 90
        0
176
     1
 90
        0
176
     1
 40
0.6
176
     1
 40
30.0
176
     1
 62
     7
420
 16777215
176
     1
 90
        1
176
     1
 90
        4
176
     1
 62
     7
176
     1
 62
   257
176
     1
 90
        1
176
     1
 90
        1
176
     1
 40
1.0
176
     1
 90
       12
176
     1
 62
     7
176
     1
 40
1.0
176
     1
 90
        1
176
     1
 90
        6
176
     1
 90
        2
176
     1
 62
     7
176
     1
 90
        5
176
     1
 90
        0
176
     1
 90
        0
176
     1
290
     0
176
     1
 90
        1
176
     1
 40
0.0
176
     1
 90
        0
176
     1
290
     0
176
     1
290
     1
176
     1
290
     1
176
     1
290
     0
176
     1
290
     0
176
     1
290
     0
176
     1
290
     0
176
     1
290
     0
176
     1
290
     0
176
     1
 90
       50
176
     1
 40
0.0
176
     1
 40
1.0
176
     1
 90
        0
176
     1
 62
    18
420
        0
176
     1
 90
       50
176
     1
 90
        3
176
     1
 62
     5
420
      255
176
     1
290
     0
176
     1
 90
       50
176
     1
 90
       50
176
     1
 90
       50
176
     1
290
     0
176
     1
 90
       50
176
     1
 62
   256
176
     0
 40
1.0
176
     0
 90
        2
176
     1
  1
strokes_ogs.tif
176
     1
290
     0
176
     1
 40
1.0
176
     1
 40
1.0
176
     1
  0
VISUALSTYLE
  5
30
102
{ACAD_REACTORS
330
2A
102
}
330
2A
100
AcDbVisualStyle
  2
Wireframe
 70
     5
177
     3
291
     0
 70
    58
 90
        0
176
     1
 90
        2
176
     1
 90
        0
176
     1
 90
        0
176
     1
 40
0.6
176
     1
 40
30.0
176
     1
 62
     7
420
 16777215
176
     1
 90
        1
176
     1
 90
        4
176
     1
 62
     7
176
     1
 62
   257
176
     1
 90
        1
176
     1
 90
        1
176
     1
 40
1.0
176
     1
 90
        0
176
     1
 62
   257
176
     1
 40
1.0
176
     1
 90
        1
176
     1
 90
        6
176
     1
 90
        2
176
     1
 62
     7
176
     1
 90
        3
176
     1
 90
        0
176
     1
 90
        0
176
     1
290
     0
176
     1
 90
        1
176
     1
 40
0.0
176
     1
 90
        0
176
     1
290
     0
176
     1
290
     1
176
     1
290
     1
176
     1
290
     0
176
     1
290
     0
176
     1
290
     0
176
     1
290
     0
176
     1
290
     0
176
     1
290
     0
176
     1
 90
       50
176
     1
 40
0.0
176
     1
 40
1.0
176
     1
 90
        0
176
     1
 62
    18
420
        0
176
     1
 90
       50
176
     1
 90
        3
176
     1
 62
     5
420
      255
176
     1
290
     0
176
     1
 90
       50
176
     1
 90
       50
176
     1
 90
       50
176
     1
290
     0
176
     1
 90
       50
176
     1
 62
   256
176
     0
 40
1.0
176
     0
 90
        2
176
     1
  1
strokes_ogs.tif
176
     1
290
     0
176
     1
 40
1.0
176
     1
 40
1.0
176
     1
  0
VISUALSTYLE
  5
40
102
{ACAD_REACTORS
330
2A
102
}
330
2A
100
AcDbVisualStyle
  2
X-Ray
 70
    25
177
     3
291
     0
 70
    58
 90
        2
176
     1
 90
        2
176
     1
 90
        1
176
     1
 90
        1
176
     1
 40
0.5
176
     1
 40
30.0
176
     1
 62
     7
420
 16777215
176
     1
 90
        1
176
     1
 90
        0
176
     1
 62
     7
176
     1
 62
   257
176
     1
 90
        1
176
     1
 90
        1
176
     1
 40
1.0
176
     1
 90
        8
176
     1
 62
     7
176
     1
 40
1.0
176
     1
 90
        1
176
     1
 90
        6
176
     1
 90
        2
176
     1
 62
     7
176
     1
 90
        3
176
     1
 90
        0
176
     1
 90
        0
176
     1
290
     0
176
     1
 90
       13
176
     1
 40
0.0
176
     1
 90
        0
176
     1
290
     0
176
     1
290
     1
176
     1
290
     1
176
     1
290
     0
176
     1
290
     0
176
     1
290
     0
176
     1
290
     0
176
     1
290
     0
176
     1
290
     0
176
     1
 90
       50
176
     1
 40
0.0
176
     1
 40
1.0
176
     1
 90
        0
176
     1
 62
    18
420
        0
176
     1
 90
       50
176
     1
 90
        3
176
     1
 62
     5
420
      255
176
     1
290
     0
176
     1
 90
       50
176
     1
 90
       50
176
     1
 90
       50
176
     1
290
     0
176
     1
 90
       50
176
     1
 62
   256
176
     0
 40
1.0
176
     0
 90
        2
176
     1
  1
strokes_ogs.tif
176
     1
290
     0
176
     1
 40
1.0
176
     1
 40
1.0
176
     1
  0
DICTIONARYVAR
  5
75
102
{ACAD_REACTORS
330
74
102
}
330
74
100
DictionaryVariables
280
     0
  1
1:1
  0
DICTIONARYVAR
  5
7D
102
{ACAD_REACTORS
330
74
102
}
330
74
100
DictionaryVariables
280
     0
  1
3.500000
  0
DICTIONARYVAR
  5
7E
102
{ACAD_REACTORS
330
74
102
}
330
74
100
DictionaryVariables
280
     0
  1
acadiso.lin
  0
DICTIONARYVAR
  5
7A
102
{ACAD_REACTORS
330
74
102
}
330
74
100
DictionaryVariables
280
     0
  1
Standard
  0
DICTIONARYVAR
  5
79
102
{ACAD_REACTORS
330
74
102
}
330
74
100
DictionaryVariables
280
     0
  1
Standard
  0
DICTIONARY
  5
76
330
5A
100
AcDbDictionary
280
     1
281
     1
  3
ACAD_ROUNDTRIP_2008_TABLESTYLE_CELLSTYLEMAP
360
77
  0
CELLSTYLEMAP
  5
77
102
{ACAD_REACTORS
330
76
102
}
330
76
100
AcDbCellStyleMap
 90
        3
300
CELLSTYLE
  1
TABLEFORMAT_BEGIN
 90
        5
170
     1
 91
        0
 92
    32768
 62
   257
 93
        1
300
CONTENTFORMAT
  1
CONTENTFORMAT_BEGIN
 90
        0
 91
        0
 92
        4
 93
        0
300

 40
0.0
140
1.0
 94
        5
 62
     0
340
11
144
6.0
309
CONTENTFORMAT_END
171
     1
301
MARGIN
  1
CELLMARGIN_BEGIN
 40
1.5
 40
1.5
 40
1.5
 40
1.5
 40
1.5
 40
1.5
309
CELLMARGIN_END
 94
        6
 95
        1
302
GRIDFORMAT
  1
GRIDFORMAT_BEGIN
 90
        0
 91
        1
 62
     0
 92
       -2
340
14
 93
        0
 40
0.045
309
GRIDFORMAT_END
 95
        2
302
GRIDFORMAT
  1
GRIDFORMAT_BEGIN
 90
        0
 91
        1
 62
     0
 92
       -2
340
14
 93
        0
 40
0.045
309
GRIDFORMAT_END
 95
        4
302
GRIDFORMAT
  1
GRIDFORMAT_BEGIN
 90
        0
 91
        1
 62
     0
 92
       -2
340
14
 93
        0
 40
0.045
309
GRIDFORMAT_END
 95
        8
302
GRIDFORMAT
  1
GRIDFORMAT_BEGIN
 90
        0
 91
        1
 62
     0
 92
       -2
340
14
 93
        0
 40
0.045
309
GRIDFORMAT_END
 95
       16
302
GRIDFORMAT
  1
GRIDFORMAT_BEGIN
 90
        0
 91
        1
 62
     0
 92
       -2
340
14
 93
        0
 40
0.045
309
GRIDFORMAT_END
 95
       32
302
GRIDFORMAT
  1
GRIDFORMAT_BEGIN
 90
        0
 91
        1
 62
     0
 92
       -2
340
14
 93
        0
 40
0.045
309
GRIDFORMAT_END
309
TABLEFORMAT_END
  1
CELLSTYLE_BEGIN
 90
        1
 91
        1
300
_TITLE
309
CELLSTYLE_END
300
CELLSTYLE
  1
TABLEFORMAT_BEGIN
 90
        5
170
     1
 91
        0
 92
        0
 62
   257
 93
        1
300
CONTENTFORMAT
  1
CONTENTFORMAT_BEGIN
 90
        0
 91
        0
 92
        4
 93
        0
300

 40
0.0
140
1.0
 94
        5
 62
     0
340
11
144
4.5
309
CONTENTFORMAT_END
171
     1
301
MARGIN
  1
CELLMARGIN_BEGIN
 40
1.5
 40
1.5
 40
1.5
 40
1.5
 40
1.5
 40
1.5
309
CELLMARGIN_END
 94
        6
 95
        1
302
GRIDFORMAT
  1
GRIDFORMAT_BEGIN
 90
        0
 91
        1
 62
     0
 92
       -2
340
14
 93
        0
 40
0.045
309
GRIDFORMAT_END
 95
        2
302
GRIDFORMAT
  1
GRIDFORMAT_BEGIN
 90
        0
 91
        1
 62
     0
 92
       -2
340
14
 93
        0
 40
0.045
309
GRIDFORMAT_END
 95
        4
302
GRIDFORMAT
  1
GRIDFORMAT_BEGIN
 90
        0
 91
        1
 62
     0
 92
       -2
340
14
 93
        0
 40
0.045
309
GRIDFORMAT_END
 95
        8
302
GRIDFORMAT
  1
GRIDFORMAT_BEGIN
 90
        0
 91
        1
 62
     0
 92
       -2
340
14
 93
        0
 40
0.045
309
GRIDFORMAT_END
 95
       16
302
GRIDFORMAT
  1
GRIDFORMAT_BEGIN
 90
        0
 91
        1
 62
     0
 92
       -2
340
14
 93
        0
 40
0.045
309
GRIDFORMAT_END
 95
       32
302
GRIDFORMAT
  1
GRIDFORMAT_BEGIN
 90
        0
 91
        1
 62
     0
 92
       -2
340
14
 93
        0
 40
0.045
309
GRIDFORMAT_END
309
TABLEFORMAT_END
  1
CELLSTYLE_BEGIN
 90
        2
 91
        1
300
_HEADER
309
CELLSTYLE_END
300
CELLSTYLE
  1
TABLEFORMAT_BEGIN
 90
        5
170
     1
 91
        0
 92
        0
 62
   257
 93
        1
300
CONTENTFORMAT
  1
CONTENTFORMAT_BEGIN
 90
        0
 91
        0
 92
        4
 93
        0
300

 40
0.0
140
1.0
 94
        2
 62
     0
340
11
144
4.5
309
CONTENTFORMAT_END
171
     1
301
MARGIN
  1
CELLMARGIN_BEGIN
 40
1.5
 40
1.5
 40
1.5
 40
1.5
 40
1.5
 40
1.5
309
CELLMARGIN_END
 94
        6
 95
        1
302
GRIDFORMAT
  1
GRIDFORMAT_BEGIN
 90
        0
 91
        1
 62
     0
 92
       -2
340
14
 93
        0
 40
0.045
309
GRIDFORMAT_END
 95
        2
302
GRIDFORMAT
  1
GRIDFORMAT_BEGIN
 90
        0
 91
        1
 62
     0
 92
       -2
340
14
 93
        0
 40
0.045
309
GRIDFORMAT_END
 95
        4
302
GRIDFORMAT
  1
GRIDFORMAT_BEGIN
 90
        0
 91
        1
 62
     0
 92
       -2
340
14
 93
        0
 40
0.045
309
GRIDFORMAT_END
 95
        8
302
GRIDFORMAT
  1
GRIDFORMAT_BEGIN
 90
        0
 91
        1
 62
     0
 92
       -2
340
14
 93
        0
 40
0.045
309
GRIDFORMAT_END
 95
       16
302
GRIDFORMAT
  1
GRIDFORMAT_BEGIN
 90
        0
 91
        1
 62
     0
 92
       -2
340
14
 93
        0
 40
0.045
309
GRIDFORMAT_END
 95
       32
302
GRIDFORMAT
  1
GRIDFORMAT_BEGIN
 90
        0
 91
        1
 62
     0
 92
       -2
340
14
 93
        0
 40
0.045
309
GRIDFORMAT_END
309
TABLEFORMAT_END
  1
CELLSTYLE_BEGIN
 90
        3
 91
        2
300
_DATA
309
CELLSTYLE_END
  0
ENDSEC
  0
EOF
